<?xml version="1.0" encoding="utf-8" standalone="no"?>
<!DOCTYPE svg PUBLIC "-//W3C//DTD SVG 1.1//EN"
  "http://www.w3.org/Graphics/SVG/1.1/DTD/svg11.dtd">
<svg xmlns:xlink="http://www.w3.org/1999/xlink" width="851.005859pt" height="497.163007pt" viewBox="0 0 851.005859 497.163007" xmlns="http://www.w3.org/2000/svg" version="1.1">
 <metadata>
  <rdf:RDF xmlns:dc="http://purl.org/dc/elements/1.1/" xmlns:cc="http://creativecommons.org/ns#" xmlns:rdf="http://www.w3.org/1999/02/22-rdf-syntax-ns#">
   <cc:Work>
    <dc:type rdf:resource="http://purl.org/dc/dcmitype/StillImage"/>
    <dc:date>2025-03-13T12:18:32.958312</dc:date>
    <dc:format>image/svg+xml</dc:format>
    <dc:creator>
     <cc:Agent>
      <dc:title>Matplotlib v3.10.0, https://matplotlib.org/</dc:title>
     </cc:Agent>
    </dc:creator>
   </cc:Work>
  </rdf:RDF>
 </metadata>
 <defs>
  <style type="text/css">*{stroke-linejoin: round; stroke-linecap: butt}</style>
 </defs>
 <g id="figure_1">
  <g id="patch_1">
   <path d="M 0 497.163007 
L 851.005859 497.163007 
L 851.005859 0 
L 0 0 
z
"/>
  </g>
  <g id="axes_1">
   <g id="patch_2">
    <path d="M 109.479553 313.070659 
L 843.805859 313.070659 
L 843.805859 39.9975 
L 109.479553 39.9975 
z
"/>
   </g>
   <g id="patch_3">
    <path d="M 142.858021 313.070659 
L 211.326674 313.070659 
L 211.326674 74.131645 
L 142.858021 74.131645 
z
" clip-path="url(#pbec7f2833e)" style="fill: #440154"/>
   </g>
   <g id="patch_4">
    <path d="M 228.443838 313.070659 
L 296.912491 313.070659 
L 296.912491 108.26579 
L 228.443838 108.26579 
z
" clip-path="url(#pbec7f2833e)" style="fill: #46327e"/>
   </g>
   <g id="patch_5">
    <path d="M 314.029654 313.070659 
L 382.498308 313.070659 
L 382.498308 108.26579 
L 314.029654 108.26579 
z
" clip-path="url(#pbec7f2833e)" style="fill: #365c8d"/>
   </g>
   <g id="patch_6">
    <path d="M 399.615471 313.070659 
L 468.084124 313.070659 
L 468.084124 74.131645 
L 399.615471 74.131645 
z
" clip-path="url(#pbec7f2833e)" style="fill: #277f8e"/>
   </g>
   <g id="patch_7">
    <path d="M 485.201288 313.070659 
L 553.669941 313.070659 
L 553.669941 74.131645 
L 485.201288 74.131645 
z
" clip-path="url(#pbec7f2833e)" style="fill: #1fa187"/>
   </g>
   <g id="patch_8">
    <path d="M 570.787104 313.070659 
L 639.255757 313.070659 
L 639.255757 74.131645 
L 570.787104 74.131645 
z
" clip-path="url(#pbec7f2833e)" style="fill: #4ac16d"/>
   </g>
   <g id="patch_9">
    <path d="M 656.372921 313.070659 
L 724.841574 313.070659 
L 724.841574 108.26579 
L 656.372921 108.26579 
z
" clip-path="url(#pbec7f2833e)" style="fill: #a0da39"/>
   </g>
   <g id="patch_10">
    <path d="M 741.958737 313.070659 
L 810.42739 313.070659 
L 810.42739 142.399935 
L 741.958737 142.399935 
z
" clip-path="url(#pbec7f2833e)" style="fill: #fde725"/>
   </g>
   <g id="matplotlib.axis_1">
    <g id="xtick_1">
     <g id="line2d_1">
      <defs>
       <path id="ma52a3c43ae" d="M 0 0 
L 0 3.5 
" style="stroke: #ffffff; stroke-width: 0.8"/>
      </defs>
      <g>
       <use xlink:href="#ma52a3c43ae" x="177.092348" y="313.070659" style="fill: #ffffff; stroke: #ffffff; stroke-width: 0.8"/>
      </g>
     </g>
     <g id="text_1">
      <!-- PONTIFICIA UNIVERSIDAD CATOLICA DE CHILE -->
      <g style="fill: #ffffff" transform="translate(12.572907 488.492446) rotate(-45) scale(0.1 -0.1)">
       <defs>
        <path id="DejaVuSans-50" d="M 1259 4147 
L 1259 2394 
L 2053 2394 
Q 2494 2394 2734 2622 
Q 2975 2850 2975 3272 
Q 2975 3691 2734 3919 
Q 2494 4147 2053 4147 
L 1259 4147 
z
M 628 4666 
L 2053 4666 
Q 2838 4666 3239 4311 
Q 3641 3956 3641 3272 
Q 3641 2581 3239 2228 
Q 2838 1875 2053 1875 
L 1259 1875 
L 1259 0 
L 628 0 
L 628 4666 
z
" transform="scale(0.015625)"/>
        <path id="DejaVuSans-4f" d="M 2522 4238 
Q 1834 4238 1429 3725 
Q 1025 3213 1025 2328 
Q 1025 1447 1429 934 
Q 1834 422 2522 422 
Q 3209 422 3611 934 
Q 4013 1447 4013 2328 
Q 4013 3213 3611 3725 
Q 3209 4238 2522 4238 
z
M 2522 4750 
Q 3503 4750 4090 4092 
Q 4678 3434 4678 2328 
Q 4678 1225 4090 567 
Q 3503 -91 2522 -91 
Q 1538 -91 948 565 
Q 359 1222 359 2328 
Q 359 3434 948 4092 
Q 1538 4750 2522 4750 
z
" transform="scale(0.015625)"/>
        <path id="DejaVuSans-4e" d="M 628 4666 
L 1478 4666 
L 3547 763 
L 3547 4666 
L 4159 4666 
L 4159 0 
L 3309 0 
L 1241 3903 
L 1241 0 
L 628 0 
L 628 4666 
z
" transform="scale(0.015625)"/>
        <path id="DejaVuSans-54" d="M -19 4666 
L 3928 4666 
L 3928 4134 
L 2272 4134 
L 2272 0 
L 1638 0 
L 1638 4134 
L -19 4134 
L -19 4666 
z
" transform="scale(0.015625)"/>
        <path id="DejaVuSans-49" d="M 628 4666 
L 1259 4666 
L 1259 0 
L 628 0 
L 628 4666 
z
" transform="scale(0.015625)"/>
        <path id="DejaVuSans-46" d="M 628 4666 
L 3309 4666 
L 3309 4134 
L 1259 4134 
L 1259 2759 
L 3109 2759 
L 3109 2228 
L 1259 2228 
L 1259 0 
L 628 0 
L 628 4666 
z
" transform="scale(0.015625)"/>
        <path id="DejaVuSans-43" d="M 4122 4306 
L 4122 3641 
Q 3803 3938 3442 4084 
Q 3081 4231 2675 4231 
Q 1875 4231 1450 3742 
Q 1025 3253 1025 2328 
Q 1025 1406 1450 917 
Q 1875 428 2675 428 
Q 3081 428 3442 575 
Q 3803 722 4122 1019 
L 4122 359 
Q 3791 134 3420 21 
Q 3050 -91 2638 -91 
Q 1578 -91 968 557 
Q 359 1206 359 2328 
Q 359 3453 968 4101 
Q 1578 4750 2638 4750 
Q 3056 4750 3426 4639 
Q 3797 4528 4122 4306 
z
" transform="scale(0.015625)"/>
        <path id="DejaVuSans-41" d="M 2188 4044 
L 1331 1722 
L 3047 1722 
L 2188 4044 
z
M 1831 4666 
L 2547 4666 
L 4325 0 
L 3669 0 
L 3244 1197 
L 1141 1197 
L 716 0 
L 50 0 
L 1831 4666 
z
" transform="scale(0.015625)"/>
        <path id="DejaVuSans-20" transform="scale(0.015625)"/>
        <path id="DejaVuSans-55" d="M 556 4666 
L 1191 4666 
L 1191 1831 
Q 1191 1081 1462 751 
Q 1734 422 2344 422 
Q 2950 422 3222 751 
Q 3494 1081 3494 1831 
L 3494 4666 
L 4128 4666 
L 4128 1753 
Q 4128 841 3676 375 
Q 3225 -91 2344 -91 
Q 1459 -91 1007 375 
Q 556 841 556 1753 
L 556 4666 
z
" transform="scale(0.015625)"/>
        <path id="DejaVuSans-56" d="M 1831 0 
L 50 4666 
L 709 4666 
L 2188 738 
L 3669 4666 
L 4325 4666 
L 2547 0 
L 1831 0 
z
" transform="scale(0.015625)"/>
        <path id="DejaVuSans-45" d="M 628 4666 
L 3578 4666 
L 3578 4134 
L 1259 4134 
L 1259 2753 
L 3481 2753 
L 3481 2222 
L 1259 2222 
L 1259 531 
L 3634 531 
L 3634 0 
L 628 0 
L 628 4666 
z
" transform="scale(0.015625)"/>
        <path id="DejaVuSans-52" d="M 2841 2188 
Q 3044 2119 3236 1894 
Q 3428 1669 3622 1275 
L 4263 0 
L 3584 0 
L 2988 1197 
Q 2756 1666 2539 1819 
Q 2322 1972 1947 1972 
L 1259 1972 
L 1259 0 
L 628 0 
L 628 4666 
L 2053 4666 
Q 2853 4666 3247 4331 
Q 3641 3997 3641 3322 
Q 3641 2881 3436 2590 
Q 3231 2300 2841 2188 
z
M 1259 4147 
L 1259 2491 
L 2053 2491 
Q 2509 2491 2742 2702 
Q 2975 2913 2975 3322 
Q 2975 3731 2742 3939 
Q 2509 4147 2053 4147 
L 1259 4147 
z
" transform="scale(0.015625)"/>
        <path id="DejaVuSans-53" d="M 3425 4513 
L 3425 3897 
Q 3066 4069 2747 4153 
Q 2428 4238 2131 4238 
Q 1616 4238 1336 4038 
Q 1056 3838 1056 3469 
Q 1056 3159 1242 3001 
Q 1428 2844 1947 2747 
L 2328 2669 
Q 3034 2534 3370 2195 
Q 3706 1856 3706 1288 
Q 3706 609 3251 259 
Q 2797 -91 1919 -91 
Q 1588 -91 1214 -16 
Q 841 59 441 206 
L 441 856 
Q 825 641 1194 531 
Q 1563 422 1919 422 
Q 2459 422 2753 634 
Q 3047 847 3047 1241 
Q 3047 1584 2836 1778 
Q 2625 1972 2144 2069 
L 1759 2144 
Q 1053 2284 737 2584 
Q 422 2884 422 3419 
Q 422 4038 858 4394 
Q 1294 4750 2059 4750 
Q 2388 4750 2728 4690 
Q 3069 4631 3425 4513 
z
" transform="scale(0.015625)"/>
        <path id="DejaVuSans-44" d="M 1259 4147 
L 1259 519 
L 2022 519 
Q 2988 519 3436 956 
Q 3884 1394 3884 2338 
Q 3884 3275 3436 3711 
Q 2988 4147 2022 4147 
L 1259 4147 
z
M 628 4666 
L 1925 4666 
Q 3281 4666 3915 4102 
Q 4550 3538 4550 2338 
Q 4550 1131 3912 565 
Q 3275 0 1925 0 
L 628 0 
L 628 4666 
z
" transform="scale(0.015625)"/>
        <path id="DejaVuSans-4c" d="M 628 4666 
L 1259 4666 
L 1259 531 
L 3531 531 
L 3531 0 
L 628 0 
L 628 4666 
z
" transform="scale(0.015625)"/>
        <path id="DejaVuSans-48" d="M 628 4666 
L 1259 4666 
L 1259 2753 
L 3553 2753 
L 3553 4666 
L 4184 4666 
L 4184 0 
L 3553 0 
L 3553 2222 
L 1259 2222 
L 1259 0 
L 628 0 
L 628 4666 
z
" transform="scale(0.015625)"/>
       </defs>
       <use xlink:href="#DejaVuSans-50"/>
       <use xlink:href="#DejaVuSans-4f" transform="translate(60.302734 0)"/>
       <use xlink:href="#DejaVuSans-4e" transform="translate(139.013672 0)"/>
       <use xlink:href="#DejaVuSans-54" transform="translate(213.818359 0)"/>
       <use xlink:href="#DejaVuSans-49" transform="translate(274.902344 0)"/>
       <use xlink:href="#DejaVuSans-46" transform="translate(304.394531 0)"/>
       <use xlink:href="#DejaVuSans-49" transform="translate(361.914062 0)"/>
       <use xlink:href="#DejaVuSans-43" transform="translate(391.40625 0)"/>
       <use xlink:href="#DejaVuSans-49" transform="translate(461.230469 0)"/>
       <use xlink:href="#DejaVuSans-41" transform="translate(490.722656 0)"/>
       <use xlink:href="#DejaVuSans-20" transform="translate(559.130859 0)"/>
       <use xlink:href="#DejaVuSans-55" transform="translate(590.917969 0)"/>
       <use xlink:href="#DejaVuSans-4e" transform="translate(664.111328 0)"/>
       <use xlink:href="#DejaVuSans-49" transform="translate(738.916016 0)"/>
       <use xlink:href="#DejaVuSans-56" transform="translate(768.408203 0)"/>
       <use xlink:href="#DejaVuSans-45" transform="translate(836.816406 0)"/>
       <use xlink:href="#DejaVuSans-52" transform="translate(900 0)"/>
       <use xlink:href="#DejaVuSans-53" transform="translate(969.482422 0)"/>
       <use xlink:href="#DejaVuSans-49" transform="translate(1032.958984 0)"/>
       <use xlink:href="#DejaVuSans-44" transform="translate(1062.451172 0)"/>
       <use xlink:href="#DejaVuSans-41" transform="translate(1137.703125 0)"/>
       <use xlink:href="#DejaVuSans-44" transform="translate(1206.111328 0)"/>
       <use xlink:href="#DejaVuSans-20" transform="translate(1283.113281 0)"/>
       <use xlink:href="#DejaVuSans-43" transform="translate(1314.900391 0)"/>
       <use xlink:href="#DejaVuSans-41" transform="translate(1384.724609 0)"/>
       <use xlink:href="#DejaVuSans-54" transform="translate(1445.382812 0)"/>
       <use xlink:href="#DejaVuSans-4f" transform="translate(1506.466797 0)"/>
       <use xlink:href="#DejaVuSans-4c" transform="translate(1585.177734 0)"/>
       <use xlink:href="#DejaVuSans-49" transform="translate(1640.890625 0)"/>
       <use xlink:href="#DejaVuSans-43" transform="translate(1670.382812 0)"/>
       <use xlink:href="#DejaVuSans-41" transform="translate(1740.207031 0)"/>
       <use xlink:href="#DejaVuSans-20" transform="translate(1808.615234 0)"/>
       <use xlink:href="#DejaVuSans-44" transform="translate(1840.402344 0)"/>
       <use xlink:href="#DejaVuSans-45" transform="translate(1917.404297 0)"/>
       <use xlink:href="#DejaVuSans-20" transform="translate(1980.587891 0)"/>
       <use xlink:href="#DejaVuSans-43" transform="translate(2012.375 0)"/>
       <use xlink:href="#DejaVuSans-48" transform="translate(2082.199219 0)"/>
       <use xlink:href="#DejaVuSans-49" transform="translate(2157.394531 0)"/>
       <use xlink:href="#DejaVuSans-4c" transform="translate(2186.886719 0)"/>
       <use xlink:href="#DejaVuSans-45" transform="translate(2242.599609 0)"/>
      </g>
     </g>
    </g>
    <g id="xtick_2">
     <g id="line2d_2">
      <g>
       <use xlink:href="#ma52a3c43ae" x="262.678164" y="313.070659" style="fill: #ffffff; stroke: #ffffff; stroke-width: 0.8"/>
      </g>
     </g>
     <g id="text_2">
      <!-- UNIVERSIDAD ANDRES BELLO -->
      <g style="fill: #ffffff" transform="translate(155.814442 430.836727) rotate(-45) scale(0.1 -0.1)">
       <defs>
        <path id="DejaVuSans-42" d="M 1259 2228 
L 1259 519 
L 2272 519 
Q 2781 519 3026 730 
Q 3272 941 3272 1375 
Q 3272 1813 3026 2020 
Q 2781 2228 2272 2228 
L 1259 2228 
z
M 1259 4147 
L 1259 2741 
L 2194 2741 
Q 2656 2741 2882 2914 
Q 3109 3088 3109 3444 
Q 3109 3797 2882 3972 
Q 2656 4147 2194 4147 
L 1259 4147 
z
M 628 4666 
L 2241 4666 
Q 2963 4666 3353 4366 
Q 3744 4066 3744 3513 
Q 3744 3084 3544 2831 
Q 3344 2578 2956 2516 
Q 3422 2416 3680 2098 
Q 3938 1781 3938 1306 
Q 3938 681 3513 340 
Q 3088 0 2303 0 
L 628 0 
L 628 4666 
z
" transform="scale(0.015625)"/>
       </defs>
       <use xlink:href="#DejaVuSans-55"/>
       <use xlink:href="#DejaVuSans-4e" transform="translate(73.193359 0)"/>
       <use xlink:href="#DejaVuSans-49" transform="translate(147.998047 0)"/>
       <use xlink:href="#DejaVuSans-56" transform="translate(177.490234 0)"/>
       <use xlink:href="#DejaVuSans-45" transform="translate(245.898438 0)"/>
       <use xlink:href="#DejaVuSans-52" transform="translate(309.082031 0)"/>
       <use xlink:href="#DejaVuSans-53" transform="translate(378.564453 0)"/>
       <use xlink:href="#DejaVuSans-49" transform="translate(442.041016 0)"/>
       <use xlink:href="#DejaVuSans-44" transform="translate(471.533203 0)"/>
       <use xlink:href="#DejaVuSans-41" transform="translate(546.785156 0)"/>
       <use xlink:href="#DejaVuSans-44" transform="translate(615.193359 0)"/>
       <use xlink:href="#DejaVuSans-20" transform="translate(692.195312 0)"/>
       <use xlink:href="#DejaVuSans-41" transform="translate(723.982422 0)"/>
       <use xlink:href="#DejaVuSans-4e" transform="translate(792.390625 0)"/>
       <use xlink:href="#DejaVuSans-44" transform="translate(867.195312 0)"/>
       <use xlink:href="#DejaVuSans-52" transform="translate(944.197266 0)"/>
       <use xlink:href="#DejaVuSans-45" transform="translate(1013.679688 0)"/>
       <use xlink:href="#DejaVuSans-53" transform="translate(1076.863281 0)"/>
       <use xlink:href="#DejaVuSans-20" transform="translate(1140.339844 0)"/>
       <use xlink:href="#DejaVuSans-42" transform="translate(1172.126953 0)"/>
       <use xlink:href="#DejaVuSans-45" transform="translate(1240.730469 0)"/>
       <use xlink:href="#DejaVuSans-4c" transform="translate(1303.914062 0)"/>
       <use xlink:href="#DejaVuSans-4c" transform="translate(1359.626953 0)"/>
       <use xlink:href="#DejaVuSans-4f" transform="translate(1411.714844 0)"/>
      </g>
     </g>
    </g>
    <g id="xtick_3">
     <g id="line2d_3">
      <g>
       <use xlink:href="#ma52a3c43ae" x="348.263981" y="313.070659" style="fill: #ffffff; stroke: #ffffff; stroke-width: 0.8"/>
      </g>
     </g>
     <g id="text_3">
      <!-- UNIVERSIDAD AUSTRAL DE CHILE -->
      <g style="fill: #ffffff" transform="translate(228.214927 444.022059) rotate(-45) scale(0.1 -0.1)">
       <use xlink:href="#DejaVuSans-55"/>
       <use xlink:href="#DejaVuSans-4e" transform="translate(73.193359 0)"/>
       <use xlink:href="#DejaVuSans-49" transform="translate(147.998047 0)"/>
       <use xlink:href="#DejaVuSans-56" transform="translate(177.490234 0)"/>
       <use xlink:href="#DejaVuSans-45" transform="translate(245.898438 0)"/>
       <use xlink:href="#DejaVuSans-52" transform="translate(309.082031 0)"/>
       <use xlink:href="#DejaVuSans-53" transform="translate(378.564453 0)"/>
       <use xlink:href="#DejaVuSans-49" transform="translate(442.041016 0)"/>
       <use xlink:href="#DejaVuSans-44" transform="translate(471.533203 0)"/>
       <use xlink:href="#DejaVuSans-41" transform="translate(546.785156 0)"/>
       <use xlink:href="#DejaVuSans-44" transform="translate(615.193359 0)"/>
       <use xlink:href="#DejaVuSans-20" transform="translate(692.195312 0)"/>
       <use xlink:href="#DejaVuSans-41" transform="translate(723.982422 0)"/>
       <use xlink:href="#DejaVuSans-55" transform="translate(792.390625 0)"/>
       <use xlink:href="#DejaVuSans-53" transform="translate(865.583984 0)"/>
       <use xlink:href="#DejaVuSans-54" transform="translate(929.060547 0)"/>
       <use xlink:href="#DejaVuSans-52" transform="translate(990.144531 0)"/>
       <use xlink:href="#DejaVuSans-41" transform="translate(1055.626953 0)"/>
       <use xlink:href="#DejaVuSans-4c" transform="translate(1124.035156 0)"/>
       <use xlink:href="#DejaVuSans-20" transform="translate(1179.748047 0)"/>
       <use xlink:href="#DejaVuSans-44" transform="translate(1211.535156 0)"/>
       <use xlink:href="#DejaVuSans-45" transform="translate(1288.537109 0)"/>
       <use xlink:href="#DejaVuSans-20" transform="translate(1351.720703 0)"/>
       <use xlink:href="#DejaVuSans-43" transform="translate(1383.507812 0)"/>
       <use xlink:href="#DejaVuSans-48" transform="translate(1453.332031 0)"/>
       <use xlink:href="#DejaVuSans-49" transform="translate(1528.527344 0)"/>
       <use xlink:href="#DejaVuSans-4c" transform="translate(1558.019531 0)"/>
       <use xlink:href="#DejaVuSans-45" transform="translate(1613.732422 0)"/>
      </g>
     </g>
    </g>
    <g id="xtick_4">
     <g id="line2d_4">
      <g>
       <use xlink:href="#ma52a3c43ae" x="433.849798" y="313.070659" style="fill: #ffffff; stroke: #ffffff; stroke-width: 0.8"/>
      </g>
     </g>
     <g id="text_4">
      <!-- UNIVERSIDAD DE CHILE -->
      <g style="fill: #ffffff" transform="translate(348.275514 409.547288) rotate(-45) scale(0.1 -0.1)">
       <use xlink:href="#DejaVuSans-55"/>
       <use xlink:href="#DejaVuSans-4e" transform="translate(73.193359 0)"/>
       <use xlink:href="#DejaVuSans-49" transform="translate(147.998047 0)"/>
       <use xlink:href="#DejaVuSans-56" transform="translate(177.490234 0)"/>
       <use xlink:href="#DejaVuSans-45" transform="translate(245.898438 0)"/>
       <use xlink:href="#DejaVuSans-52" transform="translate(309.082031 0)"/>
       <use xlink:href="#DejaVuSans-53" transform="translate(378.564453 0)"/>
       <use xlink:href="#DejaVuSans-49" transform="translate(442.041016 0)"/>
       <use xlink:href="#DejaVuSans-44" transform="translate(471.533203 0)"/>
       <use xlink:href="#DejaVuSans-41" transform="translate(546.785156 0)"/>
       <use xlink:href="#DejaVuSans-44" transform="translate(615.193359 0)"/>
       <use xlink:href="#DejaVuSans-20" transform="translate(692.195312 0)"/>
       <use xlink:href="#DejaVuSans-44" transform="translate(723.982422 0)"/>
       <use xlink:href="#DejaVuSans-45" transform="translate(800.984375 0)"/>
       <use xlink:href="#DejaVuSans-20" transform="translate(864.167969 0)"/>
       <use xlink:href="#DejaVuSans-43" transform="translate(895.955078 0)"/>
       <use xlink:href="#DejaVuSans-48" transform="translate(965.779297 0)"/>
       <use xlink:href="#DejaVuSans-49" transform="translate(1040.974609 0)"/>
       <use xlink:href="#DejaVuSans-4c" transform="translate(1070.466797 0)"/>
       <use xlink:href="#DejaVuSans-45" transform="translate(1126.179688 0)"/>
      </g>
     </g>
    </g>
    <g id="xtick_5">
     <g id="line2d_5">
      <g>
       <use xlink:href="#ma52a3c43ae" x="519.435614" y="313.070659" style="fill: #ffffff; stroke: #ffffff; stroke-width: 0.8"/>
      </g>
     </g>
     <g id="text_5">
      <!-- UNIVERSIDAD DE CONCEPCION -->
      <g style="fill: #ffffff" transform="translate(407.267486 436.141133) rotate(-45) scale(0.1 -0.1)">
       <use xlink:href="#DejaVuSans-55"/>
       <use xlink:href="#DejaVuSans-4e" transform="translate(73.193359 0)"/>
       <use xlink:href="#DejaVuSans-49" transform="translate(147.998047 0)"/>
       <use xlink:href="#DejaVuSans-56" transform="translate(177.490234 0)"/>
       <use xlink:href="#DejaVuSans-45" transform="translate(245.898438 0)"/>
       <use xlink:href="#DejaVuSans-52" transform="translate(309.082031 0)"/>
       <use xlink:href="#DejaVuSans-53" transform="translate(378.564453 0)"/>
       <use xlink:href="#DejaVuSans-49" transform="translate(442.041016 0)"/>
       <use xlink:href="#DejaVuSans-44" transform="translate(471.533203 0)"/>
       <use xlink:href="#DejaVuSans-41" transform="translate(546.785156 0)"/>
       <use xlink:href="#DejaVuSans-44" transform="translate(615.193359 0)"/>
       <use xlink:href="#DejaVuSans-20" transform="translate(692.195312 0)"/>
       <use xlink:href="#DejaVuSans-44" transform="translate(723.982422 0)"/>
       <use xlink:href="#DejaVuSans-45" transform="translate(800.984375 0)"/>
       <use xlink:href="#DejaVuSans-20" transform="translate(864.167969 0)"/>
       <use xlink:href="#DejaVuSans-43" transform="translate(895.955078 0)"/>
       <use xlink:href="#DejaVuSans-4f" transform="translate(965.779297 0)"/>
       <use xlink:href="#DejaVuSans-4e" transform="translate(1044.490234 0)"/>
       <use xlink:href="#DejaVuSans-43" transform="translate(1119.294922 0)"/>
       <use xlink:href="#DejaVuSans-45" transform="translate(1189.119141 0)"/>
       <use xlink:href="#DejaVuSans-50" transform="translate(1252.302734 0)"/>
       <use xlink:href="#DejaVuSans-43" transform="translate(1312.605469 0)"/>
       <use xlink:href="#DejaVuSans-49" transform="translate(1382.429688 0)"/>
       <use xlink:href="#DejaVuSans-4f" transform="translate(1411.921875 0)"/>
       <use xlink:href="#DejaVuSans-4e" transform="translate(1490.632812 0)"/>
      </g>
     </g>
    </g>
    <g id="xtick_6">
     <g id="line2d_6">
      <g>
       <use xlink:href="#ma52a3c43ae" x="605.021431" y="313.070659" style="fill: #ffffff; stroke: #ffffff; stroke-width: 0.8"/>
      </g>
     </g>
     <g id="text_6">
      <!-- UNIVERSIDAD DE SANTIAGO DE CHILE -->
      <g style="fill: #ffffff" transform="translate(468.127768 460.866668) rotate(-45) scale(0.1 -0.1)">
       <defs>
        <path id="DejaVuSans-47" d="M 3809 666 
L 3809 1919 
L 2778 1919 
L 2778 2438 
L 4434 2438 
L 4434 434 
Q 4069 175 3628 42 
Q 3188 -91 2688 -91 
Q 1594 -91 976 548 
Q 359 1188 359 2328 
Q 359 3472 976 4111 
Q 1594 4750 2688 4750 
Q 3144 4750 3555 4637 
Q 3966 4525 4313 4306 
L 4313 3634 
Q 3963 3931 3569 4081 
Q 3175 4231 2741 4231 
Q 1884 4231 1454 3753 
Q 1025 3275 1025 2328 
Q 1025 1384 1454 906 
Q 1884 428 2741 428 
Q 3075 428 3337 486 
Q 3600 544 3809 666 
z
" transform="scale(0.015625)"/>
       </defs>
       <use xlink:href="#DejaVuSans-55"/>
       <use xlink:href="#DejaVuSans-4e" transform="translate(73.193359 0)"/>
       <use xlink:href="#DejaVuSans-49" transform="translate(147.998047 0)"/>
       <use xlink:href="#DejaVuSans-56" transform="translate(177.490234 0)"/>
       <use xlink:href="#DejaVuSans-45" transform="translate(245.898438 0)"/>
       <use xlink:href="#DejaVuSans-52" transform="translate(309.082031 0)"/>
       <use xlink:href="#DejaVuSans-53" transform="translate(378.564453 0)"/>
       <use xlink:href="#DejaVuSans-49" transform="translate(442.041016 0)"/>
       <use xlink:href="#DejaVuSans-44" transform="translate(471.533203 0)"/>
       <use xlink:href="#DejaVuSans-41" transform="translate(546.785156 0)"/>
       <use xlink:href="#DejaVuSans-44" transform="translate(615.193359 0)"/>
       <use xlink:href="#DejaVuSans-20" transform="translate(692.195312 0)"/>
       <use xlink:href="#DejaVuSans-44" transform="translate(723.982422 0)"/>
       <use xlink:href="#DejaVuSans-45" transform="translate(800.984375 0)"/>
       <use xlink:href="#DejaVuSans-20" transform="translate(864.167969 0)"/>
       <use xlink:href="#DejaVuSans-53" transform="translate(895.955078 0)"/>
       <use xlink:href="#DejaVuSans-41" transform="translate(961.306641 0)"/>
       <use xlink:href="#DejaVuSans-4e" transform="translate(1029.714844 0)"/>
       <use xlink:href="#DejaVuSans-54" transform="translate(1104.519531 0)"/>
       <use xlink:href="#DejaVuSans-49" transform="translate(1165.603516 0)"/>
       <use xlink:href="#DejaVuSans-41" transform="translate(1195.095703 0)"/>
       <use xlink:href="#DejaVuSans-47" transform="translate(1261.753906 0)"/>
       <use xlink:href="#DejaVuSans-4f" transform="translate(1339.244141 0)"/>
       <use xlink:href="#DejaVuSans-20" transform="translate(1417.955078 0)"/>
       <use xlink:href="#DejaVuSans-44" transform="translate(1449.742188 0)"/>
       <use xlink:href="#DejaVuSans-45" transform="translate(1526.744141 0)"/>
       <use xlink:href="#DejaVuSans-20" transform="translate(1589.927734 0)"/>
       <use xlink:href="#DejaVuSans-43" transform="translate(1621.714844 0)"/>
       <use xlink:href="#DejaVuSans-48" transform="translate(1691.539062 0)"/>
       <use xlink:href="#DejaVuSans-49" transform="translate(1766.734375 0)"/>
       <use xlink:href="#DejaVuSans-4c" transform="translate(1796.226562 0)"/>
       <use xlink:href="#DejaVuSans-45" transform="translate(1851.939453 0)"/>
      </g>
     </g>
    </g>
    <g id="xtick_7">
     <g id="line2d_7">
      <g>
       <use xlink:href="#ma52a3c43ae" x="690.607247" y="313.070659" style="fill: #ffffff; stroke: #ffffff; stroke-width: 0.8"/>
      </g>
     </g>
     <g id="text_7">
      <!-- UNIVERSIDAD DE VALPARAISO -->
      <g style="fill: #ffffff" transform="translate(582.360248 432.220005) rotate(-45) scale(0.1 -0.1)">
       <use xlink:href="#DejaVuSans-55"/>
       <use xlink:href="#DejaVuSans-4e" transform="translate(73.193359 0)"/>
       <use xlink:href="#DejaVuSans-49" transform="translate(147.998047 0)"/>
       <use xlink:href="#DejaVuSans-56" transform="translate(177.490234 0)"/>
       <use xlink:href="#DejaVuSans-45" transform="translate(245.898438 0)"/>
       <use xlink:href="#DejaVuSans-52" transform="translate(309.082031 0)"/>
       <use xlink:href="#DejaVuSans-53" transform="translate(378.564453 0)"/>
       <use xlink:href="#DejaVuSans-49" transform="translate(442.041016 0)"/>
       <use xlink:href="#DejaVuSans-44" transform="translate(471.533203 0)"/>
       <use xlink:href="#DejaVuSans-41" transform="translate(546.785156 0)"/>
       <use xlink:href="#DejaVuSans-44" transform="translate(615.193359 0)"/>
       <use xlink:href="#DejaVuSans-20" transform="translate(692.195312 0)"/>
       <use xlink:href="#DejaVuSans-44" transform="translate(723.982422 0)"/>
       <use xlink:href="#DejaVuSans-45" transform="translate(800.984375 0)"/>
       <use xlink:href="#DejaVuSans-20" transform="translate(864.167969 0)"/>
       <use xlink:href="#DejaVuSans-56" transform="translate(895.955078 0)"/>
       <use xlink:href="#DejaVuSans-41" transform="translate(957.988281 0)"/>
       <use xlink:href="#DejaVuSans-4c" transform="translate(1026.396484 0)"/>
       <use xlink:href="#DejaVuSans-50" transform="translate(1082.109375 0)"/>
       <use xlink:href="#DejaVuSans-41" transform="translate(1136.037109 0)"/>
       <use xlink:href="#DejaVuSans-52" transform="translate(1204.445312 0)"/>
       <use xlink:href="#DejaVuSans-41" transform="translate(1269.927734 0)"/>
       <use xlink:href="#DejaVuSans-49" transform="translate(1338.335938 0)"/>
       <use xlink:href="#DejaVuSans-53" transform="translate(1367.828125 0)"/>
       <use xlink:href="#DejaVuSans-4f" transform="translate(1431.304688 0)"/>
      </g>
     </g>
    </g>
    <g id="xtick_8">
     <g id="line2d_8">
      <g>
       <use xlink:href="#ma52a3c43ae" x="776.193064" y="313.070659" style="fill: #ffffff; stroke: #ffffff; stroke-width: 0.8"/>
      </g>
     </g>
     <g id="text_8">
      <!-- UNIVERSIDAD SAN SEBASTIAN -->
      <g style="fill: #ffffff" transform="translate(666.865517 433.300552) rotate(-45) scale(0.1 -0.1)">
       <use xlink:href="#DejaVuSans-55"/>
       <use xlink:href="#DejaVuSans-4e" transform="translate(73.193359 0)"/>
       <use xlink:href="#DejaVuSans-49" transform="translate(147.998047 0)"/>
       <use xlink:href="#DejaVuSans-56" transform="translate(177.490234 0)"/>
       <use xlink:href="#DejaVuSans-45" transform="translate(245.898438 0)"/>
       <use xlink:href="#DejaVuSans-52" transform="translate(309.082031 0)"/>
       <use xlink:href="#DejaVuSans-53" transform="translate(378.564453 0)"/>
       <use xlink:href="#DejaVuSans-49" transform="translate(442.041016 0)"/>
       <use xlink:href="#DejaVuSans-44" transform="translate(471.533203 0)"/>
       <use xlink:href="#DejaVuSans-41" transform="translate(546.785156 0)"/>
       <use xlink:href="#DejaVuSans-44" transform="translate(615.193359 0)"/>
       <use xlink:href="#DejaVuSans-20" transform="translate(692.195312 0)"/>
       <use xlink:href="#DejaVuSans-53" transform="translate(723.982422 0)"/>
       <use xlink:href="#DejaVuSans-41" transform="translate(789.333984 0)"/>
       <use xlink:href="#DejaVuSans-4e" transform="translate(857.742188 0)"/>
       <use xlink:href="#DejaVuSans-20" transform="translate(932.546875 0)"/>
       <use xlink:href="#DejaVuSans-53" transform="translate(964.333984 0)"/>
       <use xlink:href="#DejaVuSans-45" transform="translate(1027.810547 0)"/>
       <use xlink:href="#DejaVuSans-42" transform="translate(1090.994141 0)"/>
       <use xlink:href="#DejaVuSans-41" transform="translate(1159.597656 0)"/>
       <use xlink:href="#DejaVuSans-53" transform="translate(1228.005859 0)"/>
       <use xlink:href="#DejaVuSans-54" transform="translate(1291.482422 0)"/>
       <use xlink:href="#DejaVuSans-49" transform="translate(1352.566406 0)"/>
       <use xlink:href="#DejaVuSans-41" transform="translate(1382.058594 0)"/>
       <use xlink:href="#DejaVuSans-4e" transform="translate(1450.466797 0)"/>
      </g>
     </g>
    </g>
   </g>
   <g id="matplotlib.axis_2">
    <g id="ytick_1">
     <g id="line2d_9">
      <defs>
       <path id="m2b7a1ecbe8" d="M 0 0 
L -3.5 0 
" style="stroke: #ffffff; stroke-width: 0.8"/>
      </defs>
      <g>
       <use xlink:href="#m2b7a1ecbe8" x="109.479553" y="313.070659" style="fill: #ffffff; stroke: #ffffff; stroke-width: 0.8"/>
      </g>
     </g>
     <g id="text_9">
      <!-- 0 -->
      <g style="fill: #ffffff" transform="translate(96.117053 316.869878) scale(0.1 -0.1)">
       <defs>
        <path id="DejaVuSans-30" d="M 2034 4250 
Q 1547 4250 1301 3770 
Q 1056 3291 1056 2328 
Q 1056 1369 1301 889 
Q 1547 409 2034 409 
Q 2525 409 2770 889 
Q 3016 1369 3016 2328 
Q 3016 3291 2770 3770 
Q 2525 4250 2034 4250 
z
M 2034 4750 
Q 2819 4750 3233 4129 
Q 3647 3509 3647 2328 
Q 3647 1150 3233 529 
Q 2819 -91 2034 -91 
Q 1250 -91 836 529 
Q 422 1150 422 2328 
Q 422 3509 836 4129 
Q 1250 4750 2034 4750 
z
" transform="scale(0.015625)"/>
       </defs>
       <use xlink:href="#DejaVuSans-30"/>
      </g>
     </g>
    </g>
    <g id="ytick_2">
     <g id="line2d_10">
      <g>
       <use xlink:href="#m2b7a1ecbe8" x="109.479553" y="278.936514" style="fill: #ffffff; stroke: #ffffff; stroke-width: 0.8"/>
      </g>
     </g>
     <g id="text_10">
      <!-- 1 -->
      <g style="fill: #ffffff" transform="translate(96.117053 282.735733) scale(0.1 -0.1)">
       <defs>
        <path id="DejaVuSans-31" d="M 794 531 
L 1825 531 
L 1825 4091 
L 703 3866 
L 703 4441 
L 1819 4666 
L 2450 4666 
L 2450 531 
L 3481 531 
L 3481 0 
L 794 0 
L 794 531 
z
" transform="scale(0.015625)"/>
       </defs>
       <use xlink:href="#DejaVuSans-31"/>
      </g>
     </g>
    </g>
    <g id="ytick_3">
     <g id="line2d_11">
      <g>
       <use xlink:href="#m2b7a1ecbe8" x="109.479553" y="244.802369" style="fill: #ffffff; stroke: #ffffff; stroke-width: 0.8"/>
      </g>
     </g>
     <g id="text_11">
      <!-- 2 -->
      <g style="fill: #ffffff" transform="translate(96.117053 248.601588) scale(0.1 -0.1)">
       <defs>
        <path id="DejaVuSans-32" d="M 1228 531 
L 3431 531 
L 3431 0 
L 469 0 
L 469 531 
Q 828 903 1448 1529 
Q 2069 2156 2228 2338 
Q 2531 2678 2651 2914 
Q 2772 3150 2772 3378 
Q 2772 3750 2511 3984 
Q 2250 4219 1831 4219 
Q 1534 4219 1204 4116 
Q 875 4013 500 3803 
L 500 4441 
Q 881 4594 1212 4672 
Q 1544 4750 1819 4750 
Q 2544 4750 2975 4387 
Q 3406 4025 3406 3419 
Q 3406 3131 3298 2873 
Q 3191 2616 2906 2266 
Q 2828 2175 2409 1742 
Q 1991 1309 1228 531 
z
" transform="scale(0.015625)"/>
       </defs>
       <use xlink:href="#DejaVuSans-32"/>
      </g>
     </g>
    </g>
    <g id="ytick_4">
     <g id="line2d_12">
      <g>
       <use xlink:href="#m2b7a1ecbe8" x="109.479553" y="210.668225" style="fill: #ffffff; stroke: #ffffff; stroke-width: 0.8"/>
      </g>
     </g>
     <g id="text_12">
      <!-- 3 -->
      <g style="fill: #ffffff" transform="translate(96.117053 214.467443) scale(0.1 -0.1)">
       <defs>
        <path id="DejaVuSans-33" d="M 2597 2516 
Q 3050 2419 3304 2112 
Q 3559 1806 3559 1356 
Q 3559 666 3084 287 
Q 2609 -91 1734 -91 
Q 1441 -91 1130 -33 
Q 819 25 488 141 
L 488 750 
Q 750 597 1062 519 
Q 1375 441 1716 441 
Q 2309 441 2620 675 
Q 2931 909 2931 1356 
Q 2931 1769 2642 2001 
Q 2353 2234 1838 2234 
L 1294 2234 
L 1294 2753 
L 1863 2753 
Q 2328 2753 2575 2939 
Q 2822 3125 2822 3475 
Q 2822 3834 2567 4026 
Q 2313 4219 1838 4219 
Q 1578 4219 1281 4162 
Q 984 4106 628 3988 
L 628 4550 
Q 988 4650 1302 4700 
Q 1616 4750 1894 4750 
Q 2613 4750 3031 4423 
Q 3450 4097 3450 3541 
Q 3450 3153 3228 2886 
Q 3006 2619 2597 2516 
z
" transform="scale(0.015625)"/>
       </defs>
       <use xlink:href="#DejaVuSans-33"/>
      </g>
     </g>
    </g>
    <g id="ytick_5">
     <g id="line2d_13">
      <g>
       <use xlink:href="#m2b7a1ecbe8" x="109.479553" y="176.53408" style="fill: #ffffff; stroke: #ffffff; stroke-width: 0.8"/>
      </g>
     </g>
     <g id="text_13">
      <!-- 4 -->
      <g style="fill: #ffffff" transform="translate(96.117053 180.333298) scale(0.1 -0.1)">
       <defs>
        <path id="DejaVuSans-34" d="M 2419 4116 
L 825 1625 
L 2419 1625 
L 2419 4116 
z
M 2253 4666 
L 3047 4666 
L 3047 1625 
L 3713 1625 
L 3713 1100 
L 3047 1100 
L 3047 0 
L 2419 0 
L 2419 1100 
L 313 1100 
L 313 1709 
L 2253 4666 
z
" transform="scale(0.015625)"/>
       </defs>
       <use xlink:href="#DejaVuSans-34"/>
      </g>
     </g>
    </g>
    <g id="ytick_6">
     <g id="line2d_14">
      <g>
       <use xlink:href="#m2b7a1ecbe8" x="109.479553" y="142.399935" style="fill: #ffffff; stroke: #ffffff; stroke-width: 0.8"/>
      </g>
     </g>
     <g id="text_14">
      <!-- 5 -->
      <g style="fill: #ffffff" transform="translate(96.117053 146.199153) scale(0.1 -0.1)">
       <defs>
        <path id="DejaVuSans-35" d="M 691 4666 
L 3169 4666 
L 3169 4134 
L 1269 4134 
L 1269 2991 
Q 1406 3038 1543 3061 
Q 1681 3084 1819 3084 
Q 2600 3084 3056 2656 
Q 3513 2228 3513 1497 
Q 3513 744 3044 326 
Q 2575 -91 1722 -91 
Q 1428 -91 1123 -41 
Q 819 9 494 109 
L 494 744 
Q 775 591 1075 516 
Q 1375 441 1709 441 
Q 2250 441 2565 725 
Q 2881 1009 2881 1497 
Q 2881 1984 2565 2268 
Q 2250 2553 1709 2553 
Q 1456 2553 1204 2497 
Q 953 2441 691 2322 
L 691 4666 
z
" transform="scale(0.015625)"/>
       </defs>
       <use xlink:href="#DejaVuSans-35"/>
      </g>
     </g>
    </g>
    <g id="ytick_7">
     <g id="line2d_15">
      <g>
       <use xlink:href="#m2b7a1ecbe8" x="109.479553" y="108.26579" style="fill: #ffffff; stroke: #ffffff; stroke-width: 0.8"/>
      </g>
     </g>
     <g id="text_15">
      <!-- 6 -->
      <g style="fill: #ffffff" transform="translate(96.117053 112.065009) scale(0.1 -0.1)">
       <defs>
        <path id="DejaVuSans-36" d="M 2113 2584 
Q 1688 2584 1439 2293 
Q 1191 2003 1191 1497 
Q 1191 994 1439 701 
Q 1688 409 2113 409 
Q 2538 409 2786 701 
Q 3034 994 3034 1497 
Q 3034 2003 2786 2293 
Q 2538 2584 2113 2584 
z
M 3366 4563 
L 3366 3988 
Q 3128 4100 2886 4159 
Q 2644 4219 2406 4219 
Q 1781 4219 1451 3797 
Q 1122 3375 1075 2522 
Q 1259 2794 1537 2939 
Q 1816 3084 2150 3084 
Q 2853 3084 3261 2657 
Q 3669 2231 3669 1497 
Q 3669 778 3244 343 
Q 2819 -91 2113 -91 
Q 1303 -91 875 529 
Q 447 1150 447 2328 
Q 447 3434 972 4092 
Q 1497 4750 2381 4750 
Q 2619 4750 2861 4703 
Q 3103 4656 3366 4563 
z
" transform="scale(0.015625)"/>
       </defs>
       <use xlink:href="#DejaVuSans-36"/>
      </g>
     </g>
    </g>
    <g id="ytick_8">
     <g id="line2d_16">
      <g>
       <use xlink:href="#m2b7a1ecbe8" x="109.479553" y="74.131645" style="fill: #ffffff; stroke: #ffffff; stroke-width: 0.8"/>
      </g>
     </g>
     <g id="text_16">
      <!-- 7 -->
      <g style="fill: #ffffff" transform="translate(96.117053 77.930864) scale(0.1 -0.1)">
       <defs>
        <path id="DejaVuSans-37" d="M 525 4666 
L 3525 4666 
L 3525 4397 
L 1831 0 
L 1172 0 
L 2766 4134 
L 525 4134 
L 525 4666 
z
" transform="scale(0.015625)"/>
       </defs>
       <use xlink:href="#DejaVuSans-37"/>
      </g>
     </g>
    </g>
    <g id="ytick_9">
     <g id="line2d_17">
      <g>
       <use xlink:href="#m2b7a1ecbe8" x="109.479553" y="39.9975" style="fill: #ffffff; stroke: #ffffff; stroke-width: 0.8"/>
      </g>
     </g>
     <g id="text_17">
      <!-- 8 -->
      <g style="fill: #ffffff" transform="translate(96.117053 43.796719) scale(0.1 -0.1)">
       <defs>
        <path id="DejaVuSans-38" d="M 2034 2216 
Q 1584 2216 1326 1975 
Q 1069 1734 1069 1313 
Q 1069 891 1326 650 
Q 1584 409 2034 409 
Q 2484 409 2743 651 
Q 3003 894 3003 1313 
Q 3003 1734 2745 1975 
Q 2488 2216 2034 2216 
z
M 1403 2484 
Q 997 2584 770 2862 
Q 544 3141 544 3541 
Q 544 4100 942 4425 
Q 1341 4750 2034 4750 
Q 2731 4750 3128 4425 
Q 3525 4100 3525 3541 
Q 3525 3141 3298 2862 
Q 3072 2584 2669 2484 
Q 3125 2378 3379 2068 
Q 3634 1759 3634 1313 
Q 3634 634 3220 271 
Q 2806 -91 2034 -91 
Q 1263 -91 848 271 
Q 434 634 434 1313 
Q 434 1759 690 2068 
Q 947 2378 1403 2484 
z
M 1172 3481 
Q 1172 3119 1398 2916 
Q 1625 2713 2034 2713 
Q 2441 2713 2670 2916 
Q 2900 3119 2900 3481 
Q 2900 3844 2670 4047 
Q 2441 4250 2034 4250 
Q 1625 4250 1398 4047 
Q 1172 3844 1172 3481 
z
" transform="scale(0.015625)"/>
       </defs>
       <use xlink:href="#DejaVuSans-38"/>
      </g>
     </g>
    </g>
    <g id="text_18">
     <!-- Años -->
     <g style="fill: #ffffff" transform="translate(89.621428 191.23783) rotate(-90) scale(0.12 -0.12)">
      <defs>
       <path id="DejaVuSans-f1" d="M 3513 2113 
L 3513 0 
L 2938 0 
L 2938 2094 
Q 2938 2591 2744 2837 
Q 2550 3084 2163 3084 
Q 1697 3084 1428 2787 
Q 1159 2491 1159 1978 
L 1159 0 
L 581 0 
L 581 3500 
L 1159 3500 
L 1159 2956 
Q 1366 3272 1645 3428 
Q 1925 3584 2291 3584 
Q 2894 3584 3203 3211 
Q 3513 2838 3513 2113 
z
M 2060 4281 
L 1881 4453 
Q 1813 4516 1761 4545 
Q 1710 4575 1669 4575 
Q 1550 4575 1494 4461 
Q 1438 4347 1431 4091 
L 1041 4091 
Q 1047 4513 1206 4742 
Q 1366 4972 1650 4972 
Q 1769 4972 1869 4928 
Q 1969 4884 2085 4781 
L 2263 4609 
Q 2331 4547 2383 4517 
Q 2435 4488 2475 4488 
Q 2594 4488 2650 4602 
Q 2706 4716 2713 4972 
L 3103 4972 
Q 3097 4550 2937 4320 
Q 2778 4091 2494 4091 
Q 2375 4091 2275 4134 
Q 2175 4178 2060 4281 
z
" transform="scale(0.015625)"/>
       <path id="DejaVuSans-6f" d="M 1959 3097 
Q 1497 3097 1228 2736 
Q 959 2375 959 1747 
Q 959 1119 1226 758 
Q 1494 397 1959 397 
Q 2419 397 2687 759 
Q 2956 1122 2956 1747 
Q 2956 2369 2687 2733 
Q 2419 3097 1959 3097 
z
M 1959 3584 
Q 2709 3584 3137 3096 
Q 3566 2609 3566 1747 
Q 3566 888 3137 398 
Q 2709 -91 1959 -91 
Q 1206 -91 779 398 
Q 353 888 353 1747 
Q 353 2609 779 3096 
Q 1206 3584 1959 3584 
z
" transform="scale(0.015625)"/>
       <path id="DejaVuSans-73" d="M 2834 3397 
L 2834 2853 
Q 2591 2978 2328 3040 
Q 2066 3103 1784 3103 
Q 1356 3103 1142 2972 
Q 928 2841 928 2578 
Q 928 2378 1081 2264 
Q 1234 2150 1697 2047 
L 1894 2003 
Q 2506 1872 2764 1633 
Q 3022 1394 3022 966 
Q 3022 478 2636 193 
Q 2250 -91 1575 -91 
Q 1294 -91 989 -36 
Q 684 19 347 128 
L 347 722 
Q 666 556 975 473 
Q 1284 391 1588 391 
Q 1994 391 2212 530 
Q 2431 669 2431 922 
Q 2431 1156 2273 1281 
Q 2116 1406 1581 1522 
L 1381 1569 
Q 847 1681 609 1914 
Q 372 2147 372 2553 
Q 372 3047 722 3315 
Q 1072 3584 1716 3584 
Q 2034 3584 2315 3537 
Q 2597 3491 2834 3397 
z
" transform="scale(0.015625)"/>
      </defs>
      <use xlink:href="#DejaVuSans-41"/>
      <use xlink:href="#DejaVuSans-f1" transform="translate(68.408203 0)"/>
      <use xlink:href="#DejaVuSans-6f" transform="translate(131.787109 0)"/>
      <use xlink:href="#DejaVuSans-73" transform="translate(192.96875 0)"/>
     </g>
    </g>
   </g>
   <g id="patch_11">
    <path d="M 109.479553 313.070659 
L 109.479553 39.9975 
" style="fill: none; stroke: #ffffff; stroke-width: 0.8; stroke-linejoin: miter; stroke-linecap: square"/>
   </g>
   <g id="patch_12">
    <path d="M 109.479553 313.070659 
L 843.805859 313.070659 
" style="fill: none; stroke: #ffffff; stroke-width: 0.8; stroke-linejoin: miter; stroke-linecap: square"/>
   </g>
   <g id="text_19">
    <!-- 7.0 -->
    <g style="fill: #ffff00" transform="translate(169.140785 72.051957) scale(0.1 -0.1)">
     <defs>
      <path id="DejaVuSans-2e" d="M 684 794 
L 1344 794 
L 1344 0 
L 684 0 
L 684 794 
z
" transform="scale(0.015625)"/>
     </defs>
     <use xlink:href="#DejaVuSans-37"/>
     <use xlink:href="#DejaVuSans-2e" transform="translate(63.623047 0)"/>
     <use xlink:href="#DejaVuSans-30" transform="translate(95.410156 0)"/>
    </g>
   </g>
   <g id="text_20">
    <!-- 6.0 -->
    <g style="fill: #ffff00" transform="translate(254.726602 106.186102) scale(0.1 -0.1)">
     <use xlink:href="#DejaVuSans-36"/>
     <use xlink:href="#DejaVuSans-2e" transform="translate(63.623047 0)"/>
     <use xlink:href="#DejaVuSans-30" transform="translate(95.410156 0)"/>
    </g>
   </g>
   <g id="text_21">
    <!-- 6.0 -->
    <g style="fill: #ffff00" transform="translate(340.312419 106.186102) scale(0.1 -0.1)">
     <use xlink:href="#DejaVuSans-36"/>
     <use xlink:href="#DejaVuSans-2e" transform="translate(63.623047 0)"/>
     <use xlink:href="#DejaVuSans-30" transform="translate(95.410156 0)"/>
    </g>
   </g>
   <g id="text_22">
    <!-- 7.0 -->
    <g style="fill: #ffff00" transform="translate(425.898235 72.051957) scale(0.1 -0.1)">
     <use xlink:href="#DejaVuSans-37"/>
     <use xlink:href="#DejaVuSans-2e" transform="translate(63.623047 0)"/>
     <use xlink:href="#DejaVuSans-30" transform="translate(95.410156 0)"/>
    </g>
   </g>
   <g id="text_23">
    <!-- 7.0 -->
    <g style="fill: #ffff00" transform="translate(511.484052 72.051957) scale(0.1 -0.1)">
     <use xlink:href="#DejaVuSans-37"/>
     <use xlink:href="#DejaVuSans-2e" transform="translate(63.623047 0)"/>
     <use xlink:href="#DejaVuSans-30" transform="translate(95.410156 0)"/>
    </g>
   </g>
   <g id="text_24">
    <!-- 7.0 -->
    <g style="fill: #ffff00" transform="translate(597.069868 72.051957) scale(0.1 -0.1)">
     <use xlink:href="#DejaVuSans-37"/>
     <use xlink:href="#DejaVuSans-2e" transform="translate(63.623047 0)"/>
     <use xlink:href="#DejaVuSans-30" transform="translate(95.410156 0)"/>
    </g>
   </g>
   <g id="text_25">
    <!-- 6.0 -->
    <g style="fill: #ffff00" transform="translate(682.655685 106.186102) scale(0.1 -0.1)">
     <use xlink:href="#DejaVuSans-36"/>
     <use xlink:href="#DejaVuSans-2e" transform="translate(63.623047 0)"/>
     <use xlink:href="#DejaVuSans-30" transform="translate(95.410156 0)"/>
    </g>
   </g>
   <g id="text_26">
    <!-- 5.0 -->
    <g style="fill: #ffff00" transform="translate(768.241501 140.320247) scale(0.1 -0.1)">
     <use xlink:href="#DejaVuSans-35"/>
     <use xlink:href="#DejaVuSans-2e" transform="translate(63.623047 0)"/>
     <use xlink:href="#DejaVuSans-30" transform="translate(95.410156 0)"/>
    </g>
   </g>
   <g id="text_27">
    <!-- Acreditación por Universidad -->
    <g style="fill: #ffffff" transform="translate(345.357706 19.9975) scale(0.16 -0.16)">
     <defs>
      <path id="DejaVuSans-Bold-41" d="M 3419 850 
L 1538 850 
L 1241 0 
L 31 0 
L 1759 4666 
L 3194 4666 
L 4922 0 
L 3713 0 
L 3419 850 
z
M 1838 1716 
L 3116 1716 
L 2478 3572 
L 1838 1716 
z
" transform="scale(0.015625)"/>
      <path id="DejaVuSans-Bold-63" d="M 3366 3391 
L 3366 2478 
Q 3138 2634 2908 2709 
Q 2678 2784 2431 2784 
Q 1963 2784 1702 2511 
Q 1441 2238 1441 1747 
Q 1441 1256 1702 982 
Q 1963 709 2431 709 
Q 2694 709 2930 787 
Q 3166 866 3366 1019 
L 3366 103 
Q 3103 6 2833 -42 
Q 2563 -91 2291 -91 
Q 1344 -91 809 395 
Q 275 881 275 1747 
Q 275 2613 809 3098 
Q 1344 3584 2291 3584 
Q 2566 3584 2833 3536 
Q 3100 3488 3366 3391 
z
" transform="scale(0.015625)"/>
      <path id="DejaVuSans-Bold-72" d="M 3138 2547 
Q 2991 2616 2845 2648 
Q 2700 2681 2553 2681 
Q 2122 2681 1889 2404 
Q 1656 2128 1656 1613 
L 1656 0 
L 538 0 
L 538 3500 
L 1656 3500 
L 1656 2925 
Q 1872 3269 2151 3426 
Q 2431 3584 2822 3584 
Q 2878 3584 2943 3579 
Q 3009 3575 3134 3559 
L 3138 2547 
z
" transform="scale(0.015625)"/>
      <path id="DejaVuSans-Bold-65" d="M 4031 1759 
L 4031 1441 
L 1416 1441 
Q 1456 1047 1700 850 
Q 1944 653 2381 653 
Q 2734 653 3104 758 
Q 3475 863 3866 1075 
L 3866 213 
Q 3469 63 3072 -14 
Q 2675 -91 2278 -91 
Q 1328 -91 801 392 
Q 275 875 275 1747 
Q 275 2603 792 3093 
Q 1309 3584 2216 3584 
Q 3041 3584 3536 3087 
Q 4031 2591 4031 1759 
z
M 2881 2131 
Q 2881 2450 2695 2645 
Q 2509 2841 2209 2841 
Q 1884 2841 1681 2658 
Q 1478 2475 1428 2131 
L 2881 2131 
z
" transform="scale(0.015625)"/>
      <path id="DejaVuSans-Bold-64" d="M 2919 2988 
L 2919 4863 
L 4044 4863 
L 4044 0 
L 2919 0 
L 2919 506 
Q 2688 197 2409 53 
Q 2131 -91 1766 -91 
Q 1119 -91 703 423 
Q 288 938 288 1747 
Q 288 2556 703 3070 
Q 1119 3584 1766 3584 
Q 2128 3584 2408 3439 
Q 2688 3294 2919 2988 
z
M 2181 722 
Q 2541 722 2730 984 
Q 2919 1247 2919 1747 
Q 2919 2247 2730 2509 
Q 2541 2772 2181 2772 
Q 1825 2772 1636 2509 
Q 1447 2247 1447 1747 
Q 1447 1247 1636 984 
Q 1825 722 2181 722 
z
" transform="scale(0.015625)"/>
      <path id="DejaVuSans-Bold-69" d="M 538 3500 
L 1656 3500 
L 1656 0 
L 538 0 
L 538 3500 
z
M 538 4863 
L 1656 4863 
L 1656 3950 
L 538 3950 
L 538 4863 
z
" transform="scale(0.015625)"/>
      <path id="DejaVuSans-Bold-74" d="M 1759 4494 
L 1759 3500 
L 2913 3500 
L 2913 2700 
L 1759 2700 
L 1759 1216 
Q 1759 972 1856 886 
Q 1953 800 2241 800 
L 2816 800 
L 2816 0 
L 1856 0 
Q 1194 0 917 276 
Q 641 553 641 1216 
L 641 2700 
L 84 2700 
L 84 3500 
L 641 3500 
L 641 4494 
L 1759 4494 
z
" transform="scale(0.015625)"/>
      <path id="DejaVuSans-Bold-61" d="M 2106 1575 
Q 1756 1575 1579 1456 
Q 1403 1338 1403 1106 
Q 1403 894 1545 773 
Q 1688 653 1941 653 
Q 2256 653 2472 879 
Q 2688 1106 2688 1447 
L 2688 1575 
L 2106 1575 
z
M 3816 1997 
L 3816 0 
L 2688 0 
L 2688 519 
Q 2463 200 2181 54 
Q 1900 -91 1497 -91 
Q 953 -91 614 226 
Q 275 544 275 1050 
Q 275 1666 698 1953 
Q 1122 2241 2028 2241 
L 2688 2241 
L 2688 2328 
Q 2688 2594 2478 2717 
Q 2269 2841 1825 2841 
Q 1466 2841 1156 2769 
Q 847 2697 581 2553 
L 581 3406 
Q 941 3494 1303 3539 
Q 1666 3584 2028 3584 
Q 2975 3584 3395 3211 
Q 3816 2838 3816 1997 
z
" transform="scale(0.015625)"/>
      <path id="DejaVuSans-Bold-f3" d="M 2203 2784 
Q 1831 2784 1636 2517 
Q 1441 2250 1441 1747 
Q 1441 1244 1636 976 
Q 1831 709 2203 709 
Q 2569 709 2762 976 
Q 2956 1244 2956 1747 
Q 2956 2250 2762 2517 
Q 2569 2784 2203 2784 
z
M 2203 3584 
Q 3106 3584 3614 3096 
Q 4122 2609 4122 1747 
Q 4122 884 3614 396 
Q 3106 -91 2203 -91 
Q 1297 -91 786 396 
Q 275 884 275 1747 
Q 275 2609 786 3096 
Q 1297 3584 2203 3584 
z
M 2694 5119 
L 3578 5119 
L 2425 3944 
L 1813 3944 
L 2694 5119 
z
" transform="scale(0.015625)"/>
      <path id="DejaVuSans-Bold-6e" d="M 4056 2131 
L 4056 0 
L 2931 0 
L 2931 347 
L 2931 1631 
Q 2931 2084 2911 2256 
Q 2891 2428 2841 2509 
Q 2775 2619 2662 2680 
Q 2550 2741 2406 2741 
Q 2056 2741 1856 2470 
Q 1656 2200 1656 1722 
L 1656 0 
L 538 0 
L 538 3500 
L 1656 3500 
L 1656 2988 
Q 1909 3294 2193 3439 
Q 2478 3584 2822 3584 
Q 3428 3584 3742 3212 
Q 4056 2841 4056 2131 
z
" transform="scale(0.015625)"/>
      <path id="DejaVuSans-Bold-20" transform="scale(0.015625)"/>
      <path id="DejaVuSans-Bold-70" d="M 1656 506 
L 1656 -1331 
L 538 -1331 
L 538 3500 
L 1656 3500 
L 1656 2988 
Q 1888 3294 2169 3439 
Q 2450 3584 2816 3584 
Q 3463 3584 3878 3070 
Q 4294 2556 4294 1747 
Q 4294 938 3878 423 
Q 3463 -91 2816 -91 
Q 2450 -91 2169 54 
Q 1888 200 1656 506 
z
M 2400 2772 
Q 2041 2772 1848 2508 
Q 1656 2244 1656 1747 
Q 1656 1250 1848 986 
Q 2041 722 2400 722 
Q 2759 722 2948 984 
Q 3138 1247 3138 1747 
Q 3138 2247 2948 2509 
Q 2759 2772 2400 2772 
z
" transform="scale(0.015625)"/>
      <path id="DejaVuSans-Bold-6f" d="M 2203 2784 
Q 1831 2784 1636 2517 
Q 1441 2250 1441 1747 
Q 1441 1244 1636 976 
Q 1831 709 2203 709 
Q 2569 709 2762 976 
Q 2956 1244 2956 1747 
Q 2956 2250 2762 2517 
Q 2569 2784 2203 2784 
z
M 2203 3584 
Q 3106 3584 3614 3096 
Q 4122 2609 4122 1747 
Q 4122 884 3614 396 
Q 3106 -91 2203 -91 
Q 1297 -91 786 396 
Q 275 884 275 1747 
Q 275 2609 786 3096 
Q 1297 3584 2203 3584 
z
" transform="scale(0.015625)"/>
      <path id="DejaVuSans-Bold-55" d="M 588 4666 
L 1791 4666 
L 1791 1869 
Q 1791 1291 1980 1042 
Q 2169 794 2597 794 
Q 3028 794 3217 1042 
Q 3406 1291 3406 1869 
L 3406 4666 
L 4609 4666 
L 4609 1869 
Q 4609 878 4112 393 
Q 3616 -91 2597 -91 
Q 1581 -91 1084 393 
Q 588 878 588 1869 
L 588 4666 
z
" transform="scale(0.015625)"/>
      <path id="DejaVuSans-Bold-76" d="M 97 3500 
L 1216 3500 
L 2088 1081 
L 2956 3500 
L 4078 3500 
L 2700 0 
L 1472 0 
L 97 3500 
z
" transform="scale(0.015625)"/>
      <path id="DejaVuSans-Bold-73" d="M 3272 3391 
L 3272 2541 
Q 2913 2691 2578 2766 
Q 2244 2841 1947 2841 
Q 1628 2841 1473 2761 
Q 1319 2681 1319 2516 
Q 1319 2381 1436 2309 
Q 1553 2238 1856 2203 
L 2053 2175 
Q 2913 2066 3209 1816 
Q 3506 1566 3506 1031 
Q 3506 472 3093 190 
Q 2681 -91 1863 -91 
Q 1516 -91 1145 -36 
Q 775 19 384 128 
L 384 978 
Q 719 816 1070 734 
Q 1422 653 1784 653 
Q 2113 653 2278 743 
Q 2444 834 2444 1013 
Q 2444 1163 2330 1236 
Q 2216 1309 1875 1350 
L 1678 1375 
Q 931 1469 631 1722 
Q 331 1975 331 2491 
Q 331 3047 712 3315 
Q 1094 3584 1881 3584 
Q 2191 3584 2531 3537 
Q 2872 3491 3272 3391 
z
" transform="scale(0.015625)"/>
     </defs>
     <use xlink:href="#DejaVuSans-Bold-41"/>
     <use xlink:href="#DejaVuSans-Bold-63" transform="translate(77.392578 0)"/>
     <use xlink:href="#DejaVuSans-Bold-72" transform="translate(136.669922 0)"/>
     <use xlink:href="#DejaVuSans-Bold-65" transform="translate(185.986328 0)"/>
     <use xlink:href="#DejaVuSans-Bold-64" transform="translate(253.808594 0)"/>
     <use xlink:href="#DejaVuSans-Bold-69" transform="translate(325.390625 0)"/>
     <use xlink:href="#DejaVuSans-Bold-74" transform="translate(359.667969 0)"/>
     <use xlink:href="#DejaVuSans-Bold-61" transform="translate(407.470703 0)"/>
     <use xlink:href="#DejaVuSans-Bold-63" transform="translate(474.951172 0)"/>
     <use xlink:href="#DejaVuSans-Bold-69" transform="translate(534.228516 0)"/>
     <use xlink:href="#DejaVuSans-Bold-f3" transform="translate(568.505859 0)"/>
     <use xlink:href="#DejaVuSans-Bold-6e" transform="translate(637.207031 0)"/>
     <use xlink:href="#DejaVuSans-Bold-20" transform="translate(708.398438 0)"/>
     <use xlink:href="#DejaVuSans-Bold-70" transform="translate(743.212891 0)"/>
     <use xlink:href="#DejaVuSans-Bold-6f" transform="translate(814.794922 0)"/>
     <use xlink:href="#DejaVuSans-Bold-72" transform="translate(883.496094 0)"/>
     <use xlink:href="#DejaVuSans-Bold-20" transform="translate(932.8125 0)"/>
     <use xlink:href="#DejaVuSans-Bold-55" transform="translate(967.626953 0)"/>
     <use xlink:href="#DejaVuSans-Bold-6e" transform="translate(1048.828125 0)"/>
     <use xlink:href="#DejaVuSans-Bold-69" transform="translate(1120.019531 0)"/>
     <use xlink:href="#DejaVuSans-Bold-76" transform="translate(1154.296875 0)"/>
     <use xlink:href="#DejaVuSans-Bold-65" transform="translate(1219.482422 0)"/>
     <use xlink:href="#DejaVuSans-Bold-72" transform="translate(1287.304688 0)"/>
     <use xlink:href="#DejaVuSans-Bold-73" transform="translate(1336.621094 0)"/>
     <use xlink:href="#DejaVuSans-Bold-69" transform="translate(1396.142578 0)"/>
     <use xlink:href="#DejaVuSans-Bold-64" transform="translate(1430.419922 0)"/>
     <use xlink:href="#DejaVuSans-Bold-61" transform="translate(1502.001953 0)"/>
     <use xlink:href="#DejaVuSans-Bold-64" transform="translate(1569.482422 0)"/>
    </g>
   </g>
  </g>
 </g>
 <defs>
  <clipPath id="pbec7f2833e">
   <rect x="109.479553" y="39.9975" width="734.326306" height="273.073159"/>
  </clipPath>
 </defs>
</svg>
