<?xml version="1.0" encoding="utf-8" standalone="no"?>
<!DOCTYPE svg PUBLIC "-//W3C//DTD SVG 1.1//EN"
  "http://www.w3.org/Graphics/SVG/1.1/DTD/svg11.dtd">
<svg xmlns:xlink="http://www.w3.org/1999/xlink" width="851.005859pt" height="497.890507pt" viewBox="0 0 851.005859 497.890507" xmlns="http://www.w3.org/2000/svg" version="1.1">
 <metadata>
  <rdf:RDF xmlns:dc="http://purl.org/dc/elements/1.1/" xmlns:cc="http://creativecommons.org/ns#" xmlns:rdf="http://www.w3.org/1999/02/22-rdf-syntax-ns#">
   <cc:Work>
    <dc:type rdf:resource="http://purl.org/dc/dcmitype/StillImage"/>
    <dc:date>2025-03-13T12:18:34.973563</dc:date>
    <dc:format>image/svg+xml</dc:format>
    <dc:creator>
     <cc:Agent>
      <dc:title>Matplotlib v3.10.0, https://matplotlib.org/</dc:title>
     </cc:Agent>
    </dc:creator>
   </cc:Work>
  </rdf:RDF>
 </metadata>
 <defs>
  <style type="text/css">*{stroke-linejoin: round; stroke-linecap: butt}</style>
 </defs>
 <g id="figure_1">
  <g id="patch_1">
   <path d="M 0 497.890507 
L 851.005859 497.890507 
L 851.005859 0 
L 0 0 
z
"/>
  </g>
  <g id="axes_1">
   <g id="patch_2">
    <path d="M 109.479553 313.798159 
L 843.805859 313.798159 
L 843.805859 39.645 
L 109.479553 39.645 
z
"/>
   </g>
   <g id="patch_3">
    <path d="M 142.858021 313.798159 
L 211.326674 313.798159 
L 211.326674 64.568014 
L 142.858021 64.568014 
z
" clip-path="url(#p4309e48929)" style="fill: #440154"/>
   </g>
   <g id="patch_4">
    <path d="M 228.443838 313.798159 
L 296.912491 313.798159 
L 296.912491 64.568014 
L 228.443838 64.568014 
z
" clip-path="url(#p4309e48929)" style="fill: #46327e"/>
   </g>
   <g id="patch_5">
    <path d="M 314.029654 313.798159 
L 382.498308 313.798159 
L 382.498308 64.568014 
L 314.029654 64.568014 
z
" clip-path="url(#p4309e48929)" style="fill: #365c8d"/>
   </g>
   <g id="patch_6">
    <path d="M 399.615471 313.798159 
L 468.084124 313.798159 
L 468.084124 52.699912 
L 399.615471 52.699912 
z
" clip-path="url(#p4309e48929)" style="fill: #277f8e"/>
   </g>
   <g id="patch_7">
    <path d="M 485.201288 313.798159 
L 553.669941 313.798159 
L 553.669941 64.568014 
L 485.201288 64.568014 
z
" clip-path="url(#p4309e48929)" style="fill: #1fa187"/>
   </g>
   <g id="patch_8">
    <path d="M 0 0 
z
" clip-path="url(#p4309e48929)" style="fill: #4ac16d"/>
   </g>
   <g id="patch_9">
    <path d="M 656.372921 313.798159 
L 724.841574 313.798159 
L 724.841574 76.436117 
L 656.372921 76.436117 
z
" clip-path="url(#p4309e48929)" style="fill: #a0da39"/>
   </g>
   <g id="patch_10">
    <path d="M 741.958737 313.798159 
L 810.42739 313.798159 
L 810.42739 76.436117 
L 741.958737 76.436117 
z
" clip-path="url(#p4309e48929)" style="fill: #fde725"/>
   </g>
   <g id="matplotlib.axis_1">
    <g id="xtick_1">
     <g id="line2d_1">
      <defs>
       <path id="m7e7791680e" d="M 0 0 
L 0 3.5 
" style="stroke: #ffffff; stroke-width: 0.8"/>
      </defs>
      <g>
       <use xlink:href="#m7e7791680e" x="177.092348" y="313.798159" style="fill: #ffffff; stroke: #ffffff; stroke-width: 0.8"/>
      </g>
     </g>
     <g id="text_1">
      <!-- PONTIFICIA UNIVERSIDAD CATOLICA DE CHILE -->
      <g style="fill: #ffffff" transform="translate(12.572907 489.219946) rotate(-45) scale(0.1 -0.1)">
       <defs>
        <path id="DejaVuSans-50" d="M 1259 4147 
L 1259 2394 
L 2053 2394 
Q 2494 2394 2734 2622 
Q 2975 2850 2975 3272 
Q 2975 3691 2734 3919 
Q 2494 4147 2053 4147 
L 1259 4147 
z
M 628 4666 
L 2053 4666 
Q 2838 4666 3239 4311 
Q 3641 3956 3641 3272 
Q 3641 2581 3239 2228 
Q 2838 1875 2053 1875 
L 1259 1875 
L 1259 0 
L 628 0 
L 628 4666 
z
" transform="scale(0.015625)"/>
        <path id="DejaVuSans-4f" d="M 2522 4238 
Q 1834 4238 1429 3725 
Q 1025 3213 1025 2328 
Q 1025 1447 1429 934 
Q 1834 422 2522 422 
Q 3209 422 3611 934 
Q 4013 1447 4013 2328 
Q 4013 3213 3611 3725 
Q 3209 4238 2522 4238 
z
M 2522 4750 
Q 3503 4750 4090 4092 
Q 4678 3434 4678 2328 
Q 4678 1225 4090 567 
Q 3503 -91 2522 -91 
Q 1538 -91 948 565 
Q 359 1222 359 2328 
Q 359 3434 948 4092 
Q 1538 4750 2522 4750 
z
" transform="scale(0.015625)"/>
        <path id="DejaVuSans-4e" d="M 628 4666 
L 1478 4666 
L 3547 763 
L 3547 4666 
L 4159 4666 
L 4159 0 
L 3309 0 
L 1241 3903 
L 1241 0 
L 628 0 
L 628 4666 
z
" transform="scale(0.015625)"/>
        <path id="DejaVuSans-54" d="M -19 4666 
L 3928 4666 
L 3928 4134 
L 2272 4134 
L 2272 0 
L 1638 0 
L 1638 4134 
L -19 4134 
L -19 4666 
z
" transform="scale(0.015625)"/>
        <path id="DejaVuSans-49" d="M 628 4666 
L 1259 4666 
L 1259 0 
L 628 0 
L 628 4666 
z
" transform="scale(0.015625)"/>
        <path id="DejaVuSans-46" d="M 628 4666 
L 3309 4666 
L 3309 4134 
L 1259 4134 
L 1259 2759 
L 3109 2759 
L 3109 2228 
L 1259 2228 
L 1259 0 
L 628 0 
L 628 4666 
z
" transform="scale(0.015625)"/>
        <path id="DejaVuSans-43" d="M 4122 4306 
L 4122 3641 
Q 3803 3938 3442 4084 
Q 3081 4231 2675 4231 
Q 1875 4231 1450 3742 
Q 1025 3253 1025 2328 
Q 1025 1406 1450 917 
Q 1875 428 2675 428 
Q 3081 428 3442 575 
Q 3803 722 4122 1019 
L 4122 359 
Q 3791 134 3420 21 
Q 3050 -91 2638 -91 
Q 1578 -91 968 557 
Q 359 1206 359 2328 
Q 359 3453 968 4101 
Q 1578 4750 2638 4750 
Q 3056 4750 3426 4639 
Q 3797 4528 4122 4306 
z
" transform="scale(0.015625)"/>
        <path id="DejaVuSans-41" d="M 2188 4044 
L 1331 1722 
L 3047 1722 
L 2188 4044 
z
M 1831 4666 
L 2547 4666 
L 4325 0 
L 3669 0 
L 3244 1197 
L 1141 1197 
L 716 0 
L 50 0 
L 1831 4666 
z
" transform="scale(0.015625)"/>
        <path id="DejaVuSans-20" transform="scale(0.015625)"/>
        <path id="DejaVuSans-55" d="M 556 4666 
L 1191 4666 
L 1191 1831 
Q 1191 1081 1462 751 
Q 1734 422 2344 422 
Q 2950 422 3222 751 
Q 3494 1081 3494 1831 
L 3494 4666 
L 4128 4666 
L 4128 1753 
Q 4128 841 3676 375 
Q 3225 -91 2344 -91 
Q 1459 -91 1007 375 
Q 556 841 556 1753 
L 556 4666 
z
" transform="scale(0.015625)"/>
        <path id="DejaVuSans-56" d="M 1831 0 
L 50 4666 
L 709 4666 
L 2188 738 
L 3669 4666 
L 4325 4666 
L 2547 0 
L 1831 0 
z
" transform="scale(0.015625)"/>
        <path id="DejaVuSans-45" d="M 628 4666 
L 3578 4666 
L 3578 4134 
L 1259 4134 
L 1259 2753 
L 3481 2753 
L 3481 2222 
L 1259 2222 
L 1259 531 
L 3634 531 
L 3634 0 
L 628 0 
L 628 4666 
z
" transform="scale(0.015625)"/>
        <path id="DejaVuSans-52" d="M 2841 2188 
Q 3044 2119 3236 1894 
Q 3428 1669 3622 1275 
L 4263 0 
L 3584 0 
L 2988 1197 
Q 2756 1666 2539 1819 
Q 2322 1972 1947 1972 
L 1259 1972 
L 1259 0 
L 628 0 
L 628 4666 
L 2053 4666 
Q 2853 4666 3247 4331 
Q 3641 3997 3641 3322 
Q 3641 2881 3436 2590 
Q 3231 2300 2841 2188 
z
M 1259 4147 
L 1259 2491 
L 2053 2491 
Q 2509 2491 2742 2702 
Q 2975 2913 2975 3322 
Q 2975 3731 2742 3939 
Q 2509 4147 2053 4147 
L 1259 4147 
z
" transform="scale(0.015625)"/>
        <path id="DejaVuSans-53" d="M 3425 4513 
L 3425 3897 
Q 3066 4069 2747 4153 
Q 2428 4238 2131 4238 
Q 1616 4238 1336 4038 
Q 1056 3838 1056 3469 
Q 1056 3159 1242 3001 
Q 1428 2844 1947 2747 
L 2328 2669 
Q 3034 2534 3370 2195 
Q 3706 1856 3706 1288 
Q 3706 609 3251 259 
Q 2797 -91 1919 -91 
Q 1588 -91 1214 -16 
Q 841 59 441 206 
L 441 856 
Q 825 641 1194 531 
Q 1563 422 1919 422 
Q 2459 422 2753 634 
Q 3047 847 3047 1241 
Q 3047 1584 2836 1778 
Q 2625 1972 2144 2069 
L 1759 2144 
Q 1053 2284 737 2584 
Q 422 2884 422 3419 
Q 422 4038 858 4394 
Q 1294 4750 2059 4750 
Q 2388 4750 2728 4690 
Q 3069 4631 3425 4513 
z
" transform="scale(0.015625)"/>
        <path id="DejaVuSans-44" d="M 1259 4147 
L 1259 519 
L 2022 519 
Q 2988 519 3436 956 
Q 3884 1394 3884 2338 
Q 3884 3275 3436 3711 
Q 2988 4147 2022 4147 
L 1259 4147 
z
M 628 4666 
L 1925 4666 
Q 3281 4666 3915 4102 
Q 4550 3538 4550 2338 
Q 4550 1131 3912 565 
Q 3275 0 1925 0 
L 628 0 
L 628 4666 
z
" transform="scale(0.015625)"/>
        <path id="DejaVuSans-4c" d="M 628 4666 
L 1259 4666 
L 1259 531 
L 3531 531 
L 3531 0 
L 628 0 
L 628 4666 
z
" transform="scale(0.015625)"/>
        <path id="DejaVuSans-48" d="M 628 4666 
L 1259 4666 
L 1259 2753 
L 3553 2753 
L 3553 4666 
L 4184 4666 
L 4184 0 
L 3553 0 
L 3553 2222 
L 1259 2222 
L 1259 0 
L 628 0 
L 628 4666 
z
" transform="scale(0.015625)"/>
       </defs>
       <use xlink:href="#DejaVuSans-50"/>
       <use xlink:href="#DejaVuSans-4f" transform="translate(60.302734 0)"/>
       <use xlink:href="#DejaVuSans-4e" transform="translate(139.013672 0)"/>
       <use xlink:href="#DejaVuSans-54" transform="translate(213.818359 0)"/>
       <use xlink:href="#DejaVuSans-49" transform="translate(274.902344 0)"/>
       <use xlink:href="#DejaVuSans-46" transform="translate(304.394531 0)"/>
       <use xlink:href="#DejaVuSans-49" transform="translate(361.914062 0)"/>
       <use xlink:href="#DejaVuSans-43" transform="translate(391.40625 0)"/>
       <use xlink:href="#DejaVuSans-49" transform="translate(461.230469 0)"/>
       <use xlink:href="#DejaVuSans-41" transform="translate(490.722656 0)"/>
       <use xlink:href="#DejaVuSans-20" transform="translate(559.130859 0)"/>
       <use xlink:href="#DejaVuSans-55" transform="translate(590.917969 0)"/>
       <use xlink:href="#DejaVuSans-4e" transform="translate(664.111328 0)"/>
       <use xlink:href="#DejaVuSans-49" transform="translate(738.916016 0)"/>
       <use xlink:href="#DejaVuSans-56" transform="translate(768.408203 0)"/>
       <use xlink:href="#DejaVuSans-45" transform="translate(836.816406 0)"/>
       <use xlink:href="#DejaVuSans-52" transform="translate(900 0)"/>
       <use xlink:href="#DejaVuSans-53" transform="translate(969.482422 0)"/>
       <use xlink:href="#DejaVuSans-49" transform="translate(1032.958984 0)"/>
       <use xlink:href="#DejaVuSans-44" transform="translate(1062.451172 0)"/>
       <use xlink:href="#DejaVuSans-41" transform="translate(1137.703125 0)"/>
       <use xlink:href="#DejaVuSans-44" transform="translate(1206.111328 0)"/>
       <use xlink:href="#DejaVuSans-20" transform="translate(1283.113281 0)"/>
       <use xlink:href="#DejaVuSans-43" transform="translate(1314.900391 0)"/>
       <use xlink:href="#DejaVuSans-41" transform="translate(1384.724609 0)"/>
       <use xlink:href="#DejaVuSans-54" transform="translate(1445.382812 0)"/>
       <use xlink:href="#DejaVuSans-4f" transform="translate(1506.466797 0)"/>
       <use xlink:href="#DejaVuSans-4c" transform="translate(1585.177734 0)"/>
       <use xlink:href="#DejaVuSans-49" transform="translate(1640.890625 0)"/>
       <use xlink:href="#DejaVuSans-43" transform="translate(1670.382812 0)"/>
       <use xlink:href="#DejaVuSans-41" transform="translate(1740.207031 0)"/>
       <use xlink:href="#DejaVuSans-20" transform="translate(1808.615234 0)"/>
       <use xlink:href="#DejaVuSans-44" transform="translate(1840.402344 0)"/>
       <use xlink:href="#DejaVuSans-45" transform="translate(1917.404297 0)"/>
       <use xlink:href="#DejaVuSans-20" transform="translate(1980.587891 0)"/>
       <use xlink:href="#DejaVuSans-43" transform="translate(2012.375 0)"/>
       <use xlink:href="#DejaVuSans-48" transform="translate(2082.199219 0)"/>
       <use xlink:href="#DejaVuSans-49" transform="translate(2157.394531 0)"/>
       <use xlink:href="#DejaVuSans-4c" transform="translate(2186.886719 0)"/>
       <use xlink:href="#DejaVuSans-45" transform="translate(2242.599609 0)"/>
      </g>
     </g>
    </g>
    <g id="xtick_2">
     <g id="line2d_2">
      <g>
       <use xlink:href="#m7e7791680e" x="262.678164" y="313.798159" style="fill: #ffffff; stroke: #ffffff; stroke-width: 0.8"/>
      </g>
     </g>
     <g id="text_2">
      <!-- UNIVERSIDAD ANDRES BELLO -->
      <g style="fill: #ffffff" transform="translate(155.814442 431.564227) rotate(-45) scale(0.1 -0.1)">
       <defs>
        <path id="DejaVuSans-42" d="M 1259 2228 
L 1259 519 
L 2272 519 
Q 2781 519 3026 730 
Q 3272 941 3272 1375 
Q 3272 1813 3026 2020 
Q 2781 2228 2272 2228 
L 1259 2228 
z
M 1259 4147 
L 1259 2741 
L 2194 2741 
Q 2656 2741 2882 2914 
Q 3109 3088 3109 3444 
Q 3109 3797 2882 3972 
Q 2656 4147 2194 4147 
L 1259 4147 
z
M 628 4666 
L 2241 4666 
Q 2963 4666 3353 4366 
Q 3744 4066 3744 3513 
Q 3744 3084 3544 2831 
Q 3344 2578 2956 2516 
Q 3422 2416 3680 2098 
Q 3938 1781 3938 1306 
Q 3938 681 3513 340 
Q 3088 0 2303 0 
L 628 0 
L 628 4666 
z
" transform="scale(0.015625)"/>
       </defs>
       <use xlink:href="#DejaVuSans-55"/>
       <use xlink:href="#DejaVuSans-4e" transform="translate(73.193359 0)"/>
       <use xlink:href="#DejaVuSans-49" transform="translate(147.998047 0)"/>
       <use xlink:href="#DejaVuSans-56" transform="translate(177.490234 0)"/>
       <use xlink:href="#DejaVuSans-45" transform="translate(245.898438 0)"/>
       <use xlink:href="#DejaVuSans-52" transform="translate(309.082031 0)"/>
       <use xlink:href="#DejaVuSans-53" transform="translate(378.564453 0)"/>
       <use xlink:href="#DejaVuSans-49" transform="translate(442.041016 0)"/>
       <use xlink:href="#DejaVuSans-44" transform="translate(471.533203 0)"/>
       <use xlink:href="#DejaVuSans-41" transform="translate(546.785156 0)"/>
       <use xlink:href="#DejaVuSans-44" transform="translate(615.193359 0)"/>
       <use xlink:href="#DejaVuSans-20" transform="translate(692.195312 0)"/>
       <use xlink:href="#DejaVuSans-41" transform="translate(723.982422 0)"/>
       <use xlink:href="#DejaVuSans-4e" transform="translate(792.390625 0)"/>
       <use xlink:href="#DejaVuSans-44" transform="translate(867.195312 0)"/>
       <use xlink:href="#DejaVuSans-52" transform="translate(944.197266 0)"/>
       <use xlink:href="#DejaVuSans-45" transform="translate(1013.679688 0)"/>
       <use xlink:href="#DejaVuSans-53" transform="translate(1076.863281 0)"/>
       <use xlink:href="#DejaVuSans-20" transform="translate(1140.339844 0)"/>
       <use xlink:href="#DejaVuSans-42" transform="translate(1172.126953 0)"/>
       <use xlink:href="#DejaVuSans-45" transform="translate(1240.730469 0)"/>
       <use xlink:href="#DejaVuSans-4c" transform="translate(1303.914062 0)"/>
       <use xlink:href="#DejaVuSans-4c" transform="translate(1359.626953 0)"/>
       <use xlink:href="#DejaVuSans-4f" transform="translate(1411.714844 0)"/>
      </g>
     </g>
    </g>
    <g id="xtick_3">
     <g id="line2d_3">
      <g>
       <use xlink:href="#m7e7791680e" x="348.263981" y="313.798159" style="fill: #ffffff; stroke: #ffffff; stroke-width: 0.8"/>
      </g>
     </g>
     <g id="text_3">
      <!-- UNIVERSIDAD AUSTRAL DE CHILE -->
      <g style="fill: #ffffff" transform="translate(228.214927 444.749559) rotate(-45) scale(0.1 -0.1)">
       <use xlink:href="#DejaVuSans-55"/>
       <use xlink:href="#DejaVuSans-4e" transform="translate(73.193359 0)"/>
       <use xlink:href="#DejaVuSans-49" transform="translate(147.998047 0)"/>
       <use xlink:href="#DejaVuSans-56" transform="translate(177.490234 0)"/>
       <use xlink:href="#DejaVuSans-45" transform="translate(245.898438 0)"/>
       <use xlink:href="#DejaVuSans-52" transform="translate(309.082031 0)"/>
       <use xlink:href="#DejaVuSans-53" transform="translate(378.564453 0)"/>
       <use xlink:href="#DejaVuSans-49" transform="translate(442.041016 0)"/>
       <use xlink:href="#DejaVuSans-44" transform="translate(471.533203 0)"/>
       <use xlink:href="#DejaVuSans-41" transform="translate(546.785156 0)"/>
       <use xlink:href="#DejaVuSans-44" transform="translate(615.193359 0)"/>
       <use xlink:href="#DejaVuSans-20" transform="translate(692.195312 0)"/>
       <use xlink:href="#DejaVuSans-41" transform="translate(723.982422 0)"/>
       <use xlink:href="#DejaVuSans-55" transform="translate(792.390625 0)"/>
       <use xlink:href="#DejaVuSans-53" transform="translate(865.583984 0)"/>
       <use xlink:href="#DejaVuSans-54" transform="translate(929.060547 0)"/>
       <use xlink:href="#DejaVuSans-52" transform="translate(990.144531 0)"/>
       <use xlink:href="#DejaVuSans-41" transform="translate(1055.626953 0)"/>
       <use xlink:href="#DejaVuSans-4c" transform="translate(1124.035156 0)"/>
       <use xlink:href="#DejaVuSans-20" transform="translate(1179.748047 0)"/>
       <use xlink:href="#DejaVuSans-44" transform="translate(1211.535156 0)"/>
       <use xlink:href="#DejaVuSans-45" transform="translate(1288.537109 0)"/>
       <use xlink:href="#DejaVuSans-20" transform="translate(1351.720703 0)"/>
       <use xlink:href="#DejaVuSans-43" transform="translate(1383.507812 0)"/>
       <use xlink:href="#DejaVuSans-48" transform="translate(1453.332031 0)"/>
       <use xlink:href="#DejaVuSans-49" transform="translate(1528.527344 0)"/>
       <use xlink:href="#DejaVuSans-4c" transform="translate(1558.019531 0)"/>
       <use xlink:href="#DejaVuSans-45" transform="translate(1613.732422 0)"/>
      </g>
     </g>
    </g>
    <g id="xtick_4">
     <g id="line2d_4">
      <g>
       <use xlink:href="#m7e7791680e" x="433.849798" y="313.798159" style="fill: #ffffff; stroke: #ffffff; stroke-width: 0.8"/>
      </g>
     </g>
     <g id="text_4">
      <!-- UNIVERSIDAD DE CHILE -->
      <g style="fill: #ffffff" transform="translate(348.275514 410.274788) rotate(-45) scale(0.1 -0.1)">
       <use xlink:href="#DejaVuSans-55"/>
       <use xlink:href="#DejaVuSans-4e" transform="translate(73.193359 0)"/>
       <use xlink:href="#DejaVuSans-49" transform="translate(147.998047 0)"/>
       <use xlink:href="#DejaVuSans-56" transform="translate(177.490234 0)"/>
       <use xlink:href="#DejaVuSans-45" transform="translate(245.898438 0)"/>
       <use xlink:href="#DejaVuSans-52" transform="translate(309.082031 0)"/>
       <use xlink:href="#DejaVuSans-53" transform="translate(378.564453 0)"/>
       <use xlink:href="#DejaVuSans-49" transform="translate(442.041016 0)"/>
       <use xlink:href="#DejaVuSans-44" transform="translate(471.533203 0)"/>
       <use xlink:href="#DejaVuSans-41" transform="translate(546.785156 0)"/>
       <use xlink:href="#DejaVuSans-44" transform="translate(615.193359 0)"/>
       <use xlink:href="#DejaVuSans-20" transform="translate(692.195312 0)"/>
       <use xlink:href="#DejaVuSans-44" transform="translate(723.982422 0)"/>
       <use xlink:href="#DejaVuSans-45" transform="translate(800.984375 0)"/>
       <use xlink:href="#DejaVuSans-20" transform="translate(864.167969 0)"/>
       <use xlink:href="#DejaVuSans-43" transform="translate(895.955078 0)"/>
       <use xlink:href="#DejaVuSans-48" transform="translate(965.779297 0)"/>
       <use xlink:href="#DejaVuSans-49" transform="translate(1040.974609 0)"/>
       <use xlink:href="#DejaVuSans-4c" transform="translate(1070.466797 0)"/>
       <use xlink:href="#DejaVuSans-45" transform="translate(1126.179688 0)"/>
      </g>
     </g>
    </g>
    <g id="xtick_5">
     <g id="line2d_5">
      <g>
       <use xlink:href="#m7e7791680e" x="519.435614" y="313.798159" style="fill: #ffffff; stroke: #ffffff; stroke-width: 0.8"/>
      </g>
     </g>
     <g id="text_5">
      <!-- UNIVERSIDAD DE CONCEPCION -->
      <g style="fill: #ffffff" transform="translate(407.267486 436.868633) rotate(-45) scale(0.1 -0.1)">
       <use xlink:href="#DejaVuSans-55"/>
       <use xlink:href="#DejaVuSans-4e" transform="translate(73.193359 0)"/>
       <use xlink:href="#DejaVuSans-49" transform="translate(147.998047 0)"/>
       <use xlink:href="#DejaVuSans-56" transform="translate(177.490234 0)"/>
       <use xlink:href="#DejaVuSans-45" transform="translate(245.898438 0)"/>
       <use xlink:href="#DejaVuSans-52" transform="translate(309.082031 0)"/>
       <use xlink:href="#DejaVuSans-53" transform="translate(378.564453 0)"/>
       <use xlink:href="#DejaVuSans-49" transform="translate(442.041016 0)"/>
       <use xlink:href="#DejaVuSans-44" transform="translate(471.533203 0)"/>
       <use xlink:href="#DejaVuSans-41" transform="translate(546.785156 0)"/>
       <use xlink:href="#DejaVuSans-44" transform="translate(615.193359 0)"/>
       <use xlink:href="#DejaVuSans-20" transform="translate(692.195312 0)"/>
       <use xlink:href="#DejaVuSans-44" transform="translate(723.982422 0)"/>
       <use xlink:href="#DejaVuSans-45" transform="translate(800.984375 0)"/>
       <use xlink:href="#DejaVuSans-20" transform="translate(864.167969 0)"/>
       <use xlink:href="#DejaVuSans-43" transform="translate(895.955078 0)"/>
       <use xlink:href="#DejaVuSans-4f" transform="translate(965.779297 0)"/>
       <use xlink:href="#DejaVuSans-4e" transform="translate(1044.490234 0)"/>
       <use xlink:href="#DejaVuSans-43" transform="translate(1119.294922 0)"/>
       <use xlink:href="#DejaVuSans-45" transform="translate(1189.119141 0)"/>
       <use xlink:href="#DejaVuSans-50" transform="translate(1252.302734 0)"/>
       <use xlink:href="#DejaVuSans-43" transform="translate(1312.605469 0)"/>
       <use xlink:href="#DejaVuSans-49" transform="translate(1382.429688 0)"/>
       <use xlink:href="#DejaVuSans-4f" transform="translate(1411.921875 0)"/>
       <use xlink:href="#DejaVuSans-4e" transform="translate(1490.632812 0)"/>
      </g>
     </g>
    </g>
    <g id="xtick_6">
     <g id="line2d_6">
      <g>
       <use xlink:href="#m7e7791680e" x="605.021431" y="313.798159" style="fill: #ffffff; stroke: #ffffff; stroke-width: 0.8"/>
      </g>
     </g>
     <g id="text_6">
      <!-- UNIVERSIDAD DE SANTIAGO DE CHILE -->
      <g style="fill: #ffffff" transform="translate(468.127768 461.594168) rotate(-45) scale(0.1 -0.1)">
       <defs>
        <path id="DejaVuSans-47" d="M 3809 666 
L 3809 1919 
L 2778 1919 
L 2778 2438 
L 4434 2438 
L 4434 434 
Q 4069 175 3628 42 
Q 3188 -91 2688 -91 
Q 1594 -91 976 548 
Q 359 1188 359 2328 
Q 359 3472 976 4111 
Q 1594 4750 2688 4750 
Q 3144 4750 3555 4637 
Q 3966 4525 4313 4306 
L 4313 3634 
Q 3963 3931 3569 4081 
Q 3175 4231 2741 4231 
Q 1884 4231 1454 3753 
Q 1025 3275 1025 2328 
Q 1025 1384 1454 906 
Q 1884 428 2741 428 
Q 3075 428 3337 486 
Q 3600 544 3809 666 
z
" transform="scale(0.015625)"/>
       </defs>
       <use xlink:href="#DejaVuSans-55"/>
       <use xlink:href="#DejaVuSans-4e" transform="translate(73.193359 0)"/>
       <use xlink:href="#DejaVuSans-49" transform="translate(147.998047 0)"/>
       <use xlink:href="#DejaVuSans-56" transform="translate(177.490234 0)"/>
       <use xlink:href="#DejaVuSans-45" transform="translate(245.898438 0)"/>
       <use xlink:href="#DejaVuSans-52" transform="translate(309.082031 0)"/>
       <use xlink:href="#DejaVuSans-53" transform="translate(378.564453 0)"/>
       <use xlink:href="#DejaVuSans-49" transform="translate(442.041016 0)"/>
       <use xlink:href="#DejaVuSans-44" transform="translate(471.533203 0)"/>
       <use xlink:href="#DejaVuSans-41" transform="translate(546.785156 0)"/>
       <use xlink:href="#DejaVuSans-44" transform="translate(615.193359 0)"/>
       <use xlink:href="#DejaVuSans-20" transform="translate(692.195312 0)"/>
       <use xlink:href="#DejaVuSans-44" transform="translate(723.982422 0)"/>
       <use xlink:href="#DejaVuSans-45" transform="translate(800.984375 0)"/>
       <use xlink:href="#DejaVuSans-20" transform="translate(864.167969 0)"/>
       <use xlink:href="#DejaVuSans-53" transform="translate(895.955078 0)"/>
       <use xlink:href="#DejaVuSans-41" transform="translate(961.306641 0)"/>
       <use xlink:href="#DejaVuSans-4e" transform="translate(1029.714844 0)"/>
       <use xlink:href="#DejaVuSans-54" transform="translate(1104.519531 0)"/>
       <use xlink:href="#DejaVuSans-49" transform="translate(1165.603516 0)"/>
       <use xlink:href="#DejaVuSans-41" transform="translate(1195.095703 0)"/>
       <use xlink:href="#DejaVuSans-47" transform="translate(1261.753906 0)"/>
       <use xlink:href="#DejaVuSans-4f" transform="translate(1339.244141 0)"/>
       <use xlink:href="#DejaVuSans-20" transform="translate(1417.955078 0)"/>
       <use xlink:href="#DejaVuSans-44" transform="translate(1449.742188 0)"/>
       <use xlink:href="#DejaVuSans-45" transform="translate(1526.744141 0)"/>
       <use xlink:href="#DejaVuSans-20" transform="translate(1589.927734 0)"/>
       <use xlink:href="#DejaVuSans-43" transform="translate(1621.714844 0)"/>
       <use xlink:href="#DejaVuSans-48" transform="translate(1691.539062 0)"/>
       <use xlink:href="#DejaVuSans-49" transform="translate(1766.734375 0)"/>
       <use xlink:href="#DejaVuSans-4c" transform="translate(1796.226562 0)"/>
       <use xlink:href="#DejaVuSans-45" transform="translate(1851.939453 0)"/>
      </g>
     </g>
    </g>
    <g id="xtick_7">
     <g id="line2d_7">
      <g>
       <use xlink:href="#m7e7791680e" x="690.607247" y="313.798159" style="fill: #ffffff; stroke: #ffffff; stroke-width: 0.8"/>
      </g>
     </g>
     <g id="text_7">
      <!-- UNIVERSIDAD DE VALPARAISO -->
      <g style="fill: #ffffff" transform="translate(582.360248 432.947505) rotate(-45) scale(0.1 -0.1)">
       <use xlink:href="#DejaVuSans-55"/>
       <use xlink:href="#DejaVuSans-4e" transform="translate(73.193359 0)"/>
       <use xlink:href="#DejaVuSans-49" transform="translate(147.998047 0)"/>
       <use xlink:href="#DejaVuSans-56" transform="translate(177.490234 0)"/>
       <use xlink:href="#DejaVuSans-45" transform="translate(245.898438 0)"/>
       <use xlink:href="#DejaVuSans-52" transform="translate(309.082031 0)"/>
       <use xlink:href="#DejaVuSans-53" transform="translate(378.564453 0)"/>
       <use xlink:href="#DejaVuSans-49" transform="translate(442.041016 0)"/>
       <use xlink:href="#DejaVuSans-44" transform="translate(471.533203 0)"/>
       <use xlink:href="#DejaVuSans-41" transform="translate(546.785156 0)"/>
       <use xlink:href="#DejaVuSans-44" transform="translate(615.193359 0)"/>
       <use xlink:href="#DejaVuSans-20" transform="translate(692.195312 0)"/>
       <use xlink:href="#DejaVuSans-44" transform="translate(723.982422 0)"/>
       <use xlink:href="#DejaVuSans-45" transform="translate(800.984375 0)"/>
       <use xlink:href="#DejaVuSans-20" transform="translate(864.167969 0)"/>
       <use xlink:href="#DejaVuSans-56" transform="translate(895.955078 0)"/>
       <use xlink:href="#DejaVuSans-41" transform="translate(957.988281 0)"/>
       <use xlink:href="#DejaVuSans-4c" transform="translate(1026.396484 0)"/>
       <use xlink:href="#DejaVuSans-50" transform="translate(1082.109375 0)"/>
       <use xlink:href="#DejaVuSans-41" transform="translate(1136.037109 0)"/>
       <use xlink:href="#DejaVuSans-52" transform="translate(1204.445312 0)"/>
       <use xlink:href="#DejaVuSans-41" transform="translate(1269.927734 0)"/>
       <use xlink:href="#DejaVuSans-49" transform="translate(1338.335938 0)"/>
       <use xlink:href="#DejaVuSans-53" transform="translate(1367.828125 0)"/>
       <use xlink:href="#DejaVuSans-4f" transform="translate(1431.304688 0)"/>
      </g>
     </g>
    </g>
    <g id="xtick_8">
     <g id="line2d_8">
      <g>
       <use xlink:href="#m7e7791680e" x="776.193064" y="313.798159" style="fill: #ffffff; stroke: #ffffff; stroke-width: 0.8"/>
      </g>
     </g>
     <g id="text_8">
      <!-- UNIVERSIDAD SAN SEBASTIAN -->
      <g style="fill: #ffffff" transform="translate(666.865517 434.028052) rotate(-45) scale(0.1 -0.1)">
       <use xlink:href="#DejaVuSans-55"/>
       <use xlink:href="#DejaVuSans-4e" transform="translate(73.193359 0)"/>
       <use xlink:href="#DejaVuSans-49" transform="translate(147.998047 0)"/>
       <use xlink:href="#DejaVuSans-56" transform="translate(177.490234 0)"/>
       <use xlink:href="#DejaVuSans-45" transform="translate(245.898438 0)"/>
       <use xlink:href="#DejaVuSans-52" transform="translate(309.082031 0)"/>
       <use xlink:href="#DejaVuSans-53" transform="translate(378.564453 0)"/>
       <use xlink:href="#DejaVuSans-49" transform="translate(442.041016 0)"/>
       <use xlink:href="#DejaVuSans-44" transform="translate(471.533203 0)"/>
       <use xlink:href="#DejaVuSans-41" transform="translate(546.785156 0)"/>
       <use xlink:href="#DejaVuSans-44" transform="translate(615.193359 0)"/>
       <use xlink:href="#DejaVuSans-20" transform="translate(692.195312 0)"/>
       <use xlink:href="#DejaVuSans-53" transform="translate(723.982422 0)"/>
       <use xlink:href="#DejaVuSans-41" transform="translate(789.333984 0)"/>
       <use xlink:href="#DejaVuSans-4e" transform="translate(857.742188 0)"/>
       <use xlink:href="#DejaVuSans-20" transform="translate(932.546875 0)"/>
       <use xlink:href="#DejaVuSans-53" transform="translate(964.333984 0)"/>
       <use xlink:href="#DejaVuSans-45" transform="translate(1027.810547 0)"/>
       <use xlink:href="#DejaVuSans-42" transform="translate(1090.994141 0)"/>
       <use xlink:href="#DejaVuSans-41" transform="translate(1159.597656 0)"/>
       <use xlink:href="#DejaVuSans-53" transform="translate(1228.005859 0)"/>
       <use xlink:href="#DejaVuSans-54" transform="translate(1291.482422 0)"/>
       <use xlink:href="#DejaVuSans-49" transform="translate(1352.566406 0)"/>
       <use xlink:href="#DejaVuSans-41" transform="translate(1382.058594 0)"/>
       <use xlink:href="#DejaVuSans-4e" transform="translate(1450.466797 0)"/>
      </g>
     </g>
    </g>
   </g>
   <g id="matplotlib.axis_2">
    <g id="ytick_1">
     <g id="line2d_9">
      <defs>
       <path id="mf1ccb53162" d="M 0 0 
L -3.5 0 
" style="stroke: #ffffff; stroke-width: 0.8"/>
      </defs>
      <g>
       <use xlink:href="#mf1ccb53162" x="109.479553" y="313.798159" style="fill: #ffffff; stroke: #ffffff; stroke-width: 0.8"/>
      </g>
     </g>
     <g id="text_9">
      <!-- 0.0 -->
      <g style="fill: #ffffff" transform="translate(86.576428 317.597378) scale(0.1 -0.1)">
       <defs>
        <path id="DejaVuSans-30" d="M 2034 4250 
Q 1547 4250 1301 3770 
Q 1056 3291 1056 2328 
Q 1056 1369 1301 889 
Q 1547 409 2034 409 
Q 2525 409 2770 889 
Q 3016 1369 3016 2328 
Q 3016 3291 2770 3770 
Q 2525 4250 2034 4250 
z
M 2034 4750 
Q 2819 4750 3233 4129 
Q 3647 3509 3647 2328 
Q 3647 1150 3233 529 
Q 2819 -91 2034 -91 
Q 1250 -91 836 529 
Q 422 1150 422 2328 
Q 422 3509 836 4129 
Q 1250 4750 2034 4750 
z
" transform="scale(0.015625)"/>
        <path id="DejaVuSans-2e" d="M 684 794 
L 1344 794 
L 1344 0 
L 684 0 
L 684 794 
z
" transform="scale(0.015625)"/>
       </defs>
       <use xlink:href="#DejaVuSans-30"/>
       <use xlink:href="#DejaVuSans-2e" transform="translate(63.623047 0)"/>
       <use xlink:href="#DejaVuSans-30" transform="translate(95.410156 0)"/>
      </g>
     </g>
    </g>
    <g id="ytick_2">
     <g id="line2d_10">
      <g>
       <use xlink:href="#mf1ccb53162" x="109.479553" y="254.457649" style="fill: #ffffff; stroke: #ffffff; stroke-width: 0.8"/>
      </g>
     </g>
     <g id="text_10">
      <!-- 0.5 -->
      <g style="fill: #ffffff" transform="translate(86.576428 258.256867) scale(0.1 -0.1)">
       <defs>
        <path id="DejaVuSans-35" d="M 691 4666 
L 3169 4666 
L 3169 4134 
L 1269 4134 
L 1269 2991 
Q 1406 3038 1543 3061 
Q 1681 3084 1819 3084 
Q 2600 3084 3056 2656 
Q 3513 2228 3513 1497 
Q 3513 744 3044 326 
Q 2575 -91 1722 -91 
Q 1428 -91 1123 -41 
Q 819 9 494 109 
L 494 744 
Q 775 591 1075 516 
Q 1375 441 1709 441 
Q 2250 441 2565 725 
Q 2881 1009 2881 1497 
Q 2881 1984 2565 2268 
Q 2250 2553 1709 2553 
Q 1456 2553 1204 2497 
Q 953 2441 691 2322 
L 691 4666 
z
" transform="scale(0.015625)"/>
       </defs>
       <use xlink:href="#DejaVuSans-30"/>
       <use xlink:href="#DejaVuSans-2e" transform="translate(63.623047 0)"/>
       <use xlink:href="#DejaVuSans-35" transform="translate(95.410156 0)"/>
      </g>
     </g>
    </g>
    <g id="ytick_3">
     <g id="line2d_11">
      <g>
       <use xlink:href="#mf1ccb53162" x="109.479553" y="195.117138" style="fill: #ffffff; stroke: #ffffff; stroke-width: 0.8"/>
      </g>
     </g>
     <g id="text_11">
      <!-- 1.0 -->
      <g style="fill: #ffffff" transform="translate(86.576428 198.916357) scale(0.1 -0.1)">
       <defs>
        <path id="DejaVuSans-31" d="M 794 531 
L 1825 531 
L 1825 4091 
L 703 3866 
L 703 4441 
L 1819 4666 
L 2450 4666 
L 2450 531 
L 3481 531 
L 3481 0 
L 794 0 
L 794 531 
z
" transform="scale(0.015625)"/>
       </defs>
       <use xlink:href="#DejaVuSans-31"/>
       <use xlink:href="#DejaVuSans-2e" transform="translate(63.623047 0)"/>
       <use xlink:href="#DejaVuSans-30" transform="translate(95.410156 0)"/>
      </g>
     </g>
    </g>
    <g id="ytick_4">
     <g id="line2d_12">
      <g>
       <use xlink:href="#mf1ccb53162" x="109.479553" y="135.776627" style="fill: #ffffff; stroke: #ffffff; stroke-width: 0.8"/>
      </g>
     </g>
     <g id="text_12">
      <!-- 1.5 -->
      <g style="fill: #ffffff" transform="translate(86.576428 139.575846) scale(0.1 -0.1)">
       <use xlink:href="#DejaVuSans-31"/>
       <use xlink:href="#DejaVuSans-2e" transform="translate(63.623047 0)"/>
       <use xlink:href="#DejaVuSans-35" transform="translate(95.410156 0)"/>
      </g>
     </g>
    </g>
    <g id="ytick_5">
     <g id="line2d_13">
      <g>
       <use xlink:href="#mf1ccb53162" x="109.479553" y="76.436117" style="fill: #ffffff; stroke: #ffffff; stroke-width: 0.8"/>
      </g>
     </g>
     <g id="text_13">
      <!-- 2.0 -->
      <g style="fill: #ffffff" transform="translate(86.576428 80.235335) scale(0.1 -0.1)">
       <defs>
        <path id="DejaVuSans-32" d="M 1228 531 
L 3431 531 
L 3431 0 
L 469 0 
L 469 531 
Q 828 903 1448 1529 
Q 2069 2156 2228 2338 
Q 2531 2678 2651 2914 
Q 2772 3150 2772 3378 
Q 2772 3750 2511 3984 
Q 2250 4219 1831 4219 
Q 1534 4219 1204 4116 
Q 875 4013 500 3803 
L 500 4441 
Q 881 4594 1212 4672 
Q 1544 4750 1819 4750 
Q 2544 4750 2975 4387 
Q 3406 4025 3406 3419 
Q 3406 3131 3298 2873 
Q 3191 2616 2906 2266 
Q 2828 2175 2409 1742 
Q 1991 1309 1228 531 
z
" transform="scale(0.015625)"/>
       </defs>
       <use xlink:href="#DejaVuSans-32"/>
       <use xlink:href="#DejaVuSans-2e" transform="translate(63.623047 0)"/>
       <use xlink:href="#DejaVuSans-30" transform="translate(95.410156 0)"/>
      </g>
     </g>
    </g>
    <g id="text_14">
     <!-- Millones CLP -->
     <g style="fill: #ffffff" transform="translate(80.080803 214.24783) rotate(-90) scale(0.12 -0.12)">
      <defs>
       <path id="DejaVuSans-4d" d="M 628 4666 
L 1569 4666 
L 2759 1491 
L 3956 4666 
L 4897 4666 
L 4897 0 
L 4281 0 
L 4281 4097 
L 3078 897 
L 2444 897 
L 1241 4097 
L 1241 0 
L 628 0 
L 628 4666 
z
" transform="scale(0.015625)"/>
       <path id="DejaVuSans-69" d="M 603 3500 
L 1178 3500 
L 1178 0 
L 603 0 
L 603 3500 
z
M 603 4863 
L 1178 4863 
L 1178 4134 
L 603 4134 
L 603 4863 
z
" transform="scale(0.015625)"/>
       <path id="DejaVuSans-6c" d="M 603 4863 
L 1178 4863 
L 1178 0 
L 603 0 
L 603 4863 
z
" transform="scale(0.015625)"/>
       <path id="DejaVuSans-6f" d="M 1959 3097 
Q 1497 3097 1228 2736 
Q 959 2375 959 1747 
Q 959 1119 1226 758 
Q 1494 397 1959 397 
Q 2419 397 2687 759 
Q 2956 1122 2956 1747 
Q 2956 2369 2687 2733 
Q 2419 3097 1959 3097 
z
M 1959 3584 
Q 2709 3584 3137 3096 
Q 3566 2609 3566 1747 
Q 3566 888 3137 398 
Q 2709 -91 1959 -91 
Q 1206 -91 779 398 
Q 353 888 353 1747 
Q 353 2609 779 3096 
Q 1206 3584 1959 3584 
z
" transform="scale(0.015625)"/>
       <path id="DejaVuSans-6e" d="M 3513 2113 
L 3513 0 
L 2938 0 
L 2938 2094 
Q 2938 2591 2744 2837 
Q 2550 3084 2163 3084 
Q 1697 3084 1428 2787 
Q 1159 2491 1159 1978 
L 1159 0 
L 581 0 
L 581 3500 
L 1159 3500 
L 1159 2956 
Q 1366 3272 1645 3428 
Q 1925 3584 2291 3584 
Q 2894 3584 3203 3211 
Q 3513 2838 3513 2113 
z
" transform="scale(0.015625)"/>
       <path id="DejaVuSans-65" d="M 3597 1894 
L 3597 1613 
L 953 1613 
Q 991 1019 1311 708 
Q 1631 397 2203 397 
Q 2534 397 2845 478 
Q 3156 559 3463 722 
L 3463 178 
Q 3153 47 2828 -22 
Q 2503 -91 2169 -91 
Q 1331 -91 842 396 
Q 353 884 353 1716 
Q 353 2575 817 3079 
Q 1281 3584 2069 3584 
Q 2775 3584 3186 3129 
Q 3597 2675 3597 1894 
z
M 3022 2063 
Q 3016 2534 2758 2815 
Q 2500 3097 2075 3097 
Q 1594 3097 1305 2825 
Q 1016 2553 972 2059 
L 3022 2063 
z
" transform="scale(0.015625)"/>
       <path id="DejaVuSans-73" d="M 2834 3397 
L 2834 2853 
Q 2591 2978 2328 3040 
Q 2066 3103 1784 3103 
Q 1356 3103 1142 2972 
Q 928 2841 928 2578 
Q 928 2378 1081 2264 
Q 1234 2150 1697 2047 
L 1894 2003 
Q 2506 1872 2764 1633 
Q 3022 1394 3022 966 
Q 3022 478 2636 193 
Q 2250 -91 1575 -91 
Q 1294 -91 989 -36 
Q 684 19 347 128 
L 347 722 
Q 666 556 975 473 
Q 1284 391 1588 391 
Q 1994 391 2212 530 
Q 2431 669 2431 922 
Q 2431 1156 2273 1281 
Q 2116 1406 1581 1522 
L 1381 1569 
Q 847 1681 609 1914 
Q 372 2147 372 2553 
Q 372 3047 722 3315 
Q 1072 3584 1716 3584 
Q 2034 3584 2315 3537 
Q 2597 3491 2834 3397 
z
" transform="scale(0.015625)"/>
      </defs>
      <use xlink:href="#DejaVuSans-4d"/>
      <use xlink:href="#DejaVuSans-69" transform="translate(86.279297 0)"/>
      <use xlink:href="#DejaVuSans-6c" transform="translate(114.0625 0)"/>
      <use xlink:href="#DejaVuSans-6c" transform="translate(141.845703 0)"/>
      <use xlink:href="#DejaVuSans-6f" transform="translate(169.628906 0)"/>
      <use xlink:href="#DejaVuSans-6e" transform="translate(230.810547 0)"/>
      <use xlink:href="#DejaVuSans-65" transform="translate(294.189453 0)"/>
      <use xlink:href="#DejaVuSans-73" transform="translate(355.712891 0)"/>
      <use xlink:href="#DejaVuSans-20" transform="translate(407.8125 0)"/>
      <use xlink:href="#DejaVuSans-43" transform="translate(439.599609 0)"/>
      <use xlink:href="#DejaVuSans-4c" transform="translate(509.423828 0)"/>
      <use xlink:href="#DejaVuSans-50" transform="translate(565.136719 0)"/>
     </g>
    </g>
   </g>
   <g id="patch_11">
    <path d="M 109.479553 313.798159 
L 109.479553 39.645 
" style="fill: none; stroke: #ffffff; stroke-width: 0.8; stroke-linejoin: miter; stroke-linecap: square"/>
   </g>
   <g id="patch_12">
    <path d="M 109.479553 313.798159 
L 843.805859 313.798159 
" style="fill: none; stroke: #ffffff; stroke-width: 0.8; stroke-linejoin: miter; stroke-linecap: square"/>
   </g>
   <g id="text_15">
    <!-- 2.1 -->
    <g style="fill: #ffff00" transform="translate(169.140785 62.488327) scale(0.1 -0.1)">
     <use xlink:href="#DejaVuSans-32"/>
     <use xlink:href="#DejaVuSans-2e" transform="translate(63.623047 0)"/>
     <use xlink:href="#DejaVuSans-31" transform="translate(95.410156 0)"/>
    </g>
   </g>
   <g id="text_16">
    <!-- 2.1 -->
    <g style="fill: #ffff00" transform="translate(254.726602 62.488327) scale(0.1 -0.1)">
     <use xlink:href="#DejaVuSans-32"/>
     <use xlink:href="#DejaVuSans-2e" transform="translate(63.623047 0)"/>
     <use xlink:href="#DejaVuSans-31" transform="translate(95.410156 0)"/>
    </g>
   </g>
   <g id="text_17">
    <!-- 2.1 -->
    <g style="fill: #ffff00" transform="translate(340.312419 62.488327) scale(0.1 -0.1)">
     <use xlink:href="#DejaVuSans-32"/>
     <use xlink:href="#DejaVuSans-2e" transform="translate(63.623047 0)"/>
     <use xlink:href="#DejaVuSans-31" transform="translate(95.410156 0)"/>
    </g>
   </g>
   <g id="text_18">
    <!-- 2.2 -->
    <g style="fill: #ffff00" transform="translate(425.898235 50.620225) scale(0.1 -0.1)">
     <use xlink:href="#DejaVuSans-32"/>
     <use xlink:href="#DejaVuSans-2e" transform="translate(63.623047 0)"/>
     <use xlink:href="#DejaVuSans-32" transform="translate(95.410156 0)"/>
    </g>
   </g>
   <g id="text_19">
    <!-- 2.1 -->
    <g style="fill: #ffff00" transform="translate(511.484052 62.488327) scale(0.1 -0.1)">
     <use xlink:href="#DejaVuSans-32"/>
     <use xlink:href="#DejaVuSans-2e" transform="translate(63.623047 0)"/>
     <use xlink:href="#DejaVuSans-31" transform="translate(95.410156 0)"/>
    </g>
   </g>
   <g id="text_20">
    <!-- 2.0 -->
    <g style="fill: #ffff00" transform="translate(682.655685 74.356429) scale(0.1 -0.1)">
     <use xlink:href="#DejaVuSans-32"/>
     <use xlink:href="#DejaVuSans-2e" transform="translate(63.623047 0)"/>
     <use xlink:href="#DejaVuSans-30" transform="translate(95.410156 0)"/>
    </g>
   </g>
   <g id="text_21">
    <!-- 2.0 -->
    <g style="fill: #ffff00" transform="translate(768.241501 74.356429) scale(0.1 -0.1)">
     <use xlink:href="#DejaVuSans-32"/>
     <use xlink:href="#DejaVuSans-2e" transform="translate(63.623047 0)"/>
     <use xlink:href="#DejaVuSans-30" transform="translate(95.410156 0)"/>
    </g>
   </g>
   <g id="text_22">
    <!-- Ingreso Promedio al 4° Año -->
    <g style="fill: #ffffff" transform="translate(353.353956 19.645) scale(0.16 -0.16)">
     <defs>
      <path id="DejaVuSans-Bold-49" d="M 588 4666 
L 1791 4666 
L 1791 0 
L 588 0 
L 588 4666 
z
" transform="scale(0.015625)"/>
      <path id="DejaVuSans-Bold-6e" d="M 4056 2131 
L 4056 0 
L 2931 0 
L 2931 347 
L 2931 1631 
Q 2931 2084 2911 2256 
Q 2891 2428 2841 2509 
Q 2775 2619 2662 2680 
Q 2550 2741 2406 2741 
Q 2056 2741 1856 2470 
Q 1656 2200 1656 1722 
L 1656 0 
L 538 0 
L 538 3500 
L 1656 3500 
L 1656 2988 
Q 1909 3294 2193 3439 
Q 2478 3584 2822 3584 
Q 3428 3584 3742 3212 
Q 4056 2841 4056 2131 
z
" transform="scale(0.015625)"/>
      <path id="DejaVuSans-Bold-67" d="M 2919 594 
Q 2688 288 2409 144 
Q 2131 0 1766 0 
Q 1125 0 706 504 
Q 288 1009 288 1791 
Q 288 2575 706 3076 
Q 1125 3578 1766 3578 
Q 2131 3578 2409 3434 
Q 2688 3291 2919 2981 
L 2919 3500 
L 4044 3500 
L 4044 353 
Q 4044 -491 3511 -936 
Q 2978 -1381 1966 -1381 
Q 1638 -1381 1331 -1331 
Q 1025 -1281 716 -1178 
L 716 -306 
Q 1009 -475 1290 -558 
Q 1572 -641 1856 -641 
Q 2406 -641 2662 -400 
Q 2919 -159 2919 353 
L 2919 594 
z
M 2181 2772 
Q 1834 2772 1640 2515 
Q 1447 2259 1447 1791 
Q 1447 1309 1634 1061 
Q 1822 813 2181 813 
Q 2531 813 2725 1069 
Q 2919 1325 2919 1791 
Q 2919 2259 2725 2515 
Q 2531 2772 2181 2772 
z
" transform="scale(0.015625)"/>
      <path id="DejaVuSans-Bold-72" d="M 3138 2547 
Q 2991 2616 2845 2648 
Q 2700 2681 2553 2681 
Q 2122 2681 1889 2404 
Q 1656 2128 1656 1613 
L 1656 0 
L 538 0 
L 538 3500 
L 1656 3500 
L 1656 2925 
Q 1872 3269 2151 3426 
Q 2431 3584 2822 3584 
Q 2878 3584 2943 3579 
Q 3009 3575 3134 3559 
L 3138 2547 
z
" transform="scale(0.015625)"/>
      <path id="DejaVuSans-Bold-65" d="M 4031 1759 
L 4031 1441 
L 1416 1441 
Q 1456 1047 1700 850 
Q 1944 653 2381 653 
Q 2734 653 3104 758 
Q 3475 863 3866 1075 
L 3866 213 
Q 3469 63 3072 -14 
Q 2675 -91 2278 -91 
Q 1328 -91 801 392 
Q 275 875 275 1747 
Q 275 2603 792 3093 
Q 1309 3584 2216 3584 
Q 3041 3584 3536 3087 
Q 4031 2591 4031 1759 
z
M 2881 2131 
Q 2881 2450 2695 2645 
Q 2509 2841 2209 2841 
Q 1884 2841 1681 2658 
Q 1478 2475 1428 2131 
L 2881 2131 
z
" transform="scale(0.015625)"/>
      <path id="DejaVuSans-Bold-73" d="M 3272 3391 
L 3272 2541 
Q 2913 2691 2578 2766 
Q 2244 2841 1947 2841 
Q 1628 2841 1473 2761 
Q 1319 2681 1319 2516 
Q 1319 2381 1436 2309 
Q 1553 2238 1856 2203 
L 2053 2175 
Q 2913 2066 3209 1816 
Q 3506 1566 3506 1031 
Q 3506 472 3093 190 
Q 2681 -91 1863 -91 
Q 1516 -91 1145 -36 
Q 775 19 384 128 
L 384 978 
Q 719 816 1070 734 
Q 1422 653 1784 653 
Q 2113 653 2278 743 
Q 2444 834 2444 1013 
Q 2444 1163 2330 1236 
Q 2216 1309 1875 1350 
L 1678 1375 
Q 931 1469 631 1722 
Q 331 1975 331 2491 
Q 331 3047 712 3315 
Q 1094 3584 1881 3584 
Q 2191 3584 2531 3537 
Q 2872 3491 3272 3391 
z
" transform="scale(0.015625)"/>
      <path id="DejaVuSans-Bold-6f" d="M 2203 2784 
Q 1831 2784 1636 2517 
Q 1441 2250 1441 1747 
Q 1441 1244 1636 976 
Q 1831 709 2203 709 
Q 2569 709 2762 976 
Q 2956 1244 2956 1747 
Q 2956 2250 2762 2517 
Q 2569 2784 2203 2784 
z
M 2203 3584 
Q 3106 3584 3614 3096 
Q 4122 2609 4122 1747 
Q 4122 884 3614 396 
Q 3106 -91 2203 -91 
Q 1297 -91 786 396 
Q 275 884 275 1747 
Q 275 2609 786 3096 
Q 1297 3584 2203 3584 
z
" transform="scale(0.015625)"/>
      <path id="DejaVuSans-Bold-20" transform="scale(0.015625)"/>
      <path id="DejaVuSans-Bold-50" d="M 588 4666 
L 2584 4666 
Q 3475 4666 3951 4270 
Q 4428 3875 4428 3144 
Q 4428 2409 3951 2014 
Q 3475 1619 2584 1619 
L 1791 1619 
L 1791 0 
L 588 0 
L 588 4666 
z
M 1791 3794 
L 1791 2491 
L 2456 2491 
Q 2806 2491 2997 2661 
Q 3188 2831 3188 3144 
Q 3188 3456 2997 3625 
Q 2806 3794 2456 3794 
L 1791 3794 
z
" transform="scale(0.015625)"/>
      <path id="DejaVuSans-Bold-6d" d="M 3781 2919 
Q 3994 3244 4286 3414 
Q 4578 3584 4928 3584 
Q 5531 3584 5847 3212 
Q 6163 2841 6163 2131 
L 6163 0 
L 5038 0 
L 5038 1825 
Q 5041 1866 5042 1909 
Q 5044 1953 5044 2034 
Q 5044 2406 4934 2573 
Q 4825 2741 4581 2741 
Q 4263 2741 4089 2478 
Q 3916 2216 3909 1719 
L 3909 0 
L 2784 0 
L 2784 1825 
Q 2784 2406 2684 2573 
Q 2584 2741 2328 2741 
Q 2006 2741 1831 2477 
Q 1656 2213 1656 1722 
L 1656 0 
L 531 0 
L 531 3500 
L 1656 3500 
L 1656 2988 
Q 1863 3284 2130 3434 
Q 2397 3584 2719 3584 
Q 3081 3584 3359 3409 
Q 3638 3234 3781 2919 
z
" transform="scale(0.015625)"/>
      <path id="DejaVuSans-Bold-64" d="M 2919 2988 
L 2919 4863 
L 4044 4863 
L 4044 0 
L 2919 0 
L 2919 506 
Q 2688 197 2409 53 
Q 2131 -91 1766 -91 
Q 1119 -91 703 423 
Q 288 938 288 1747 
Q 288 2556 703 3070 
Q 1119 3584 1766 3584 
Q 2128 3584 2408 3439 
Q 2688 3294 2919 2988 
z
M 2181 722 
Q 2541 722 2730 984 
Q 2919 1247 2919 1747 
Q 2919 2247 2730 2509 
Q 2541 2772 2181 2772 
Q 1825 2772 1636 2509 
Q 1447 2247 1447 1747 
Q 1447 1247 1636 984 
Q 1825 722 2181 722 
z
" transform="scale(0.015625)"/>
      <path id="DejaVuSans-Bold-69" d="M 538 3500 
L 1656 3500 
L 1656 0 
L 538 0 
L 538 3500 
z
M 538 4863 
L 1656 4863 
L 1656 3950 
L 538 3950 
L 538 4863 
z
" transform="scale(0.015625)"/>
      <path id="DejaVuSans-Bold-61" d="M 2106 1575 
Q 1756 1575 1579 1456 
Q 1403 1338 1403 1106 
Q 1403 894 1545 773 
Q 1688 653 1941 653 
Q 2256 653 2472 879 
Q 2688 1106 2688 1447 
L 2688 1575 
L 2106 1575 
z
M 3816 1997 
L 3816 0 
L 2688 0 
L 2688 519 
Q 2463 200 2181 54 
Q 1900 -91 1497 -91 
Q 953 -91 614 226 
Q 275 544 275 1050 
Q 275 1666 698 1953 
Q 1122 2241 2028 2241 
L 2688 2241 
L 2688 2328 
Q 2688 2594 2478 2717 
Q 2269 2841 1825 2841 
Q 1466 2841 1156 2769 
Q 847 2697 581 2553 
L 581 3406 
Q 941 3494 1303 3539 
Q 1666 3584 2028 3584 
Q 2975 3584 3395 3211 
Q 3816 2838 3816 1997 
z
" transform="scale(0.015625)"/>
      <path id="DejaVuSans-Bold-6c" d="M 538 4863 
L 1656 4863 
L 1656 0 
L 538 0 
L 538 4863 
z
" transform="scale(0.015625)"/>
      <path id="DejaVuSans-Bold-34" d="M 2356 3675 
L 1038 1722 
L 2356 1722 
L 2356 3675 
z
M 2156 4666 
L 3494 4666 
L 3494 1722 
L 4159 1722 
L 4159 850 
L 3494 850 
L 3494 0 
L 2356 0 
L 2356 850 
L 288 850 
L 288 1881 
L 2156 4666 
z
" transform="scale(0.015625)"/>
      <path id="DejaVuSans-Bold-b0" d="M 1600 4288 
Q 1375 4288 1219 4131 
Q 1063 3975 1063 3750 
Q 1063 3525 1217 3372 
Q 1372 3219 1600 3219 
Q 1825 3219 1981 3373 
Q 2138 3528 2138 3750 
Q 2138 3975 1980 4131 
Q 1822 4288 1600 4288 
z
M 1600 4794 
Q 1806 4794 1997 4714 
Q 2188 4634 2338 4488 
Q 2484 4338 2561 4150 
Q 2638 3963 2638 3750 
Q 2638 3541 2561 3352 
Q 2484 3163 2344 3022 
Q 2194 2872 2000 2792 
Q 1806 2713 1594 2713 
Q 1153 2713 854 3011 
Q 556 3309 556 3750 
Q 556 4191 857 4492 
Q 1159 4794 1600 4794 
z
" transform="scale(0.015625)"/>
      <path id="DejaVuSans-Bold-41" d="M 3419 850 
L 1538 850 
L 1241 0 
L 31 0 
L 1759 4666 
L 3194 4666 
L 4922 0 
L 3713 0 
L 3419 850 
z
M 1838 1716 
L 3116 1716 
L 2478 3572 
L 1838 1716 
z
" transform="scale(0.015625)"/>
      <path id="DejaVuSans-Bold-f1" d="M 4056 2131 
L 4056 0 
L 2931 0 
L 2931 347 
L 2931 1631 
Q 2931 2084 2911 2256 
Q 2891 2428 2841 2509 
Q 2775 2619 2662 2680 
Q 2550 2741 2406 2741 
Q 2056 2741 1856 2470 
Q 1656 2200 1656 1722 
L 1656 0 
L 538 0 
L 538 3500 
L 1656 3500 
L 1656 2988 
Q 1909 3294 2193 3439 
Q 2478 3584 2822 3584 
Q 3428 3584 3742 3212 
Q 4056 2841 4056 2131 
z
M 2366 4263 
L 2194 4378 
Q 2182 4384 2163 4397 
Q 2016 4494 1938 4494 
Q 1826 4494 1766 4397 
Q 1707 4300 1707 4116 
L 1707 4091 
L 1273 4091 
Q 1273 4516 1433 4747 
Q 1594 4978 1885 4978 
Q 1998 4978 2112 4936 
Q 2226 4894 2354 4800 
L 2544 4666 
Q 2613 4619 2671 4594 
Q 2729 4569 2776 4569 
Q 2888 4569 2950 4669 
Q 3013 4769 3013 4947 
L 3013 4972 
L 3448 4972 
Q 3448 4547 3287 4315 
Q 3126 4084 2835 4084 
Q 2723 4084 2618 4121 
Q 2513 4159 2366 4263 
z
" transform="scale(0.015625)"/>
     </defs>
     <use xlink:href="#DejaVuSans-Bold-49"/>
     <use xlink:href="#DejaVuSans-Bold-6e" transform="translate(37.207031 0)"/>
     <use xlink:href="#DejaVuSans-Bold-67" transform="translate(108.398438 0)"/>
     <use xlink:href="#DejaVuSans-Bold-72" transform="translate(179.980469 0)"/>
     <use xlink:href="#DejaVuSans-Bold-65" transform="translate(229.296875 0)"/>
     <use xlink:href="#DejaVuSans-Bold-73" transform="translate(297.119141 0)"/>
     <use xlink:href="#DejaVuSans-Bold-6f" transform="translate(356.640625 0)"/>
     <use xlink:href="#DejaVuSans-Bold-20" transform="translate(425.341797 0)"/>
     <use xlink:href="#DejaVuSans-Bold-50" transform="translate(460.15625 0)"/>
     <use xlink:href="#DejaVuSans-Bold-72" transform="translate(533.447266 0)"/>
     <use xlink:href="#DejaVuSans-Bold-6f" transform="translate(582.763672 0)"/>
     <use xlink:href="#DejaVuSans-Bold-6d" transform="translate(651.464844 0)"/>
     <use xlink:href="#DejaVuSans-Bold-65" transform="translate(755.664062 0)"/>
     <use xlink:href="#DejaVuSans-Bold-64" transform="translate(823.486328 0)"/>
     <use xlink:href="#DejaVuSans-Bold-69" transform="translate(895.068359 0)"/>
     <use xlink:href="#DejaVuSans-Bold-6f" transform="translate(929.345703 0)"/>
     <use xlink:href="#DejaVuSans-Bold-20" transform="translate(998.046875 0)"/>
     <use xlink:href="#DejaVuSans-Bold-61" transform="translate(1032.861328 0)"/>
     <use xlink:href="#DejaVuSans-Bold-6c" transform="translate(1100.341797 0)"/>
     <use xlink:href="#DejaVuSans-Bold-20" transform="translate(1134.619141 0)"/>
     <use xlink:href="#DejaVuSans-Bold-34" transform="translate(1169.433594 0)"/>
     <use xlink:href="#DejaVuSans-Bold-b0" transform="translate(1239.013672 0)"/>
     <use xlink:href="#DejaVuSans-Bold-20" transform="translate(1289.013672 0)"/>
     <use xlink:href="#DejaVuSans-Bold-41" transform="translate(1323.828125 0)"/>
     <use xlink:href="#DejaVuSans-Bold-f1" transform="translate(1401.220703 0)"/>
     <use xlink:href="#DejaVuSans-Bold-6f" transform="translate(1472.412109 0)"/>
    </g>
   </g>
  </g>
 </g>
 <defs>
  <clipPath id="p4309e48929">
   <rect x="109.479553" y="39.645" width="734.326306" height="274.153159"/>
  </clipPath>
 </defs>
</svg>
